<svg width="54" height="55" viewBox="0 0 54 55" fill="none" xmlns="http://www.w3.org/2000/svg">
<circle cx="27" cy="27.8398" r="26.5" fill="white" stroke="#B9BED3"/>
<path d="M40.2393 25.1979H39.1525V25.1439H27.0024V30.544H34.63C33.5162 33.6895 30.5259 35.944 27.0024 35.944C22.5271 35.944 18.9023 32.3192 18.9023 27.8439C18.9023 23.3686 22.5271 19.7438 27.0024 19.7438C29.0679 19.7438 30.9444 20.5201 32.3754 21.7958L36.196 17.9753C33.7862 15.7275 30.5597 14.3438 27.0024 14.3438C19.5435 14.3438 13.5022 20.3851 13.5022 27.8439C13.5022 35.3028 19.5435 41.3441 27.0024 41.3441C34.4612 41.3441 40.5025 35.296 40.5025 27.8439C40.5025 26.9394 40.408 26.0552 40.2393 25.1979Z" fill="#FAB409"/>
<path d="M15.0635 21.5596L19.4983 24.8131C20.6998 21.8431 23.6023 19.7438 27.0044 19.7438C29.0699 19.7438 30.9464 20.5201 32.3774 21.7958L36.198 17.9753C33.7882 15.7275 30.5617 14.3438 27.0044 14.3438C21.8203 14.3438 17.3248 17.2733 15.0635 21.5596Z" fill="#E73B2F"/>
<path d="M27.0047 41.3484C30.4945 41.3484 33.6602 40.0119 36.0565 37.8451L31.8782 34.3081C30.5215 35.3341 28.8407 35.9484 27.0047 35.9484C23.4946 35.9484 20.5111 33.7073 19.3906 30.582L14.9895 33.9773C17.2238 38.3514 21.7598 41.3484 27.0047 41.3484Z" fill="#2E9E49"/>
<path d="M40.2413 25.2024H39.1546V25.1484H27.0044V30.5485H34.632C34.0987 32.0605 33.1267 33.3633 31.8712 34.3083L36.0495 37.8454C35.7525 38.1154 40.4978 34.5986 40.4978 27.8485C40.4978 26.944 40.4033 26.0597 40.2346 25.2024H40.2413Z" fill="#3A7AF2"/>
</svg>
