<svg width="24" height="24" viewBox="0 0 24 24" fill="none" xmlns="http://www.w3.org/2000/svg">
<path fill-rule="evenodd" clip-rule="evenodd" d="M3.67608 3C3.40057 2.99997 3.13835 2.99995 2.9174 3.018C2.67645 3.03769 2.40009 3.0836 2.12387 3.22435C1.73657 3.42169 1.42169 3.73657 1.22435 4.12387C1.0836 4.40009 1.03769 4.67645 1.018 4.9174C0.999949 5.13835 0.999975 5.40057 1 5.67608V17.9821C0.999975 18.2576 0.999949 18.5199 1.018 18.7408C1.03769 18.9818 1.0836 19.2581 1.22435 19.5343C1.42169 19.9216 1.73657 20.2365 2.12387 20.4339C2.40009 20.5746 2.67645 20.6205 2.9174 20.6402C3.13835 20.6583 3.40056 20.6582 3.67608 20.6582H20.3154C20.5909 20.6582 20.8532 20.6583 21.0741 20.6402C21.3151 20.6205 21.5914 20.5746 21.8676 20.4339C22.2549 20.2365 22.5698 19.9216 22.7672 19.5343C22.9079 19.2581 22.9538 18.9818 22.9735 18.7408C22.9916 18.5199 22.9915 18.2577 22.9915 17.9822V5.67608C22.9915 5.40059 22.9916 5.13834 22.9735 4.9174C22.9538 4.67645 22.9079 4.40009 22.7672 4.12387C22.5698 3.73657 22.2549 3.42169 21.8676 3.22435C21.5914 3.0836 21.3151 3.03769 21.0741 3.018C20.8532 2.99995 20.5909 2.99997 20.3154 3H3.67608ZM2.94961 5.04931C2.94961 4.98948 2.99811 4.94098 3.05794 4.94098H20.9328C20.9926 4.94098 21.0411 4.98948 21.0411 5.04931V18.5909C21.0411 18.6507 20.9926 18.6992 20.9328 18.6992H3.05794C2.99811 18.6992 2.94961 18.6507 2.94961 18.5909V5.04931ZM6.3667 6.9937C5.9425 6.66201 5.32974 6.73701 4.99806 7.1612C4.66638 7.58539 4.74137 8.19815 5.16556 8.52984L12.0013 13.8748L18.8256 8.52932C19.2495 8.19727 19.324 7.58445 18.9919 7.16054C18.6599 6.73663 18.0471 6.66216 17.6231 6.99421L12.0002 11.3987L6.3667 6.9937Z" fill="white"/>
</svg>
