<svg width="31" height="26" viewBox="0 0 31 26" fill="none" xmlns="http://www.w3.org/2000/svg">
<path d="M25.4655 9.94387L25.4655 9.94386L25.485 9.92438L25.378 9.81736L25.485 9.92437C25.6526 9.75671 25.8062 9.60325 25.9448 9.48559C26.0949 9.35813 26.2721 9.23282 26.4973 9.15965C26.8198 9.05484 27.1673 9.05484 27.4899 9.15965L27.5366 9.01579L27.4899 9.15965C27.7151 9.23282 27.8922 9.35813 28.0423 9.48559C28.1809 9.60326 28.3345 9.75672 28.5022 9.92439L28.5022 9.9244L29.146 10.5682L29.146 10.5682C29.3136 10.7358 29.4671 10.8894 29.5848 11.028L29.7001 10.9301L29.5848 11.028C29.7122 11.1782 29.8375 11.3553 29.9107 11.5805C30.0155 11.9031 30.0155 12.2505 29.9107 12.5731C29.8375 12.7983 29.7122 12.9754 29.5848 13.1256L29.7001 13.2235L29.5848 13.1256C29.4671 13.2642 29.3136 13.4177 29.146 13.5854L29.253 13.6924L29.1459 13.5854L29.1265 13.6049L29.1265 13.6049L23.0146 19.7167L16.9471 25.7843H13.2861V22.1233L25.4655 9.94387ZM27.166 10.5147L27.059 10.6217L27.166 10.5147C27.0708 10.4194 26.9164 10.4194 26.8211 10.5147L14.6926 22.6432L14.6483 22.6875V22.7502V24.2707V24.4221H14.7997H16.3202H16.3829L16.4272 24.3777L28.5557 12.2492C28.6509 12.154 28.6509 11.9996 28.5557 11.9043L27.166 10.5147Z" fill="#5E2BE8" stroke="#5E2BE8" stroke-width="0.302711"/>
<path fill-rule="evenodd" clip-rule="evenodd" d="M2.47025 0.847658C2.21592 0.847633 1.97388 0.847609 1.76992 0.864273C1.54751 0.882445 1.2924 0.92483 1.03742 1.05475C0.679914 1.23691 0.389251 1.52757 0.207092 1.88508C0.0771742 2.14006 0.0347885 2.39516 0.0166171 2.61757C-4.72721e-05 2.82153 -2.33113e-05 3.06358 1.96108e-06 3.3179V17.1774C-2.33113e-05 17.4317 -4.72721e-05 17.6738 0.0166171 17.8777C0.0347885 18.1002 0.0771742 18.3553 0.207092 18.6102C0.389251 18.9677 0.679914 19.2584 1.03742 19.4406C1.2924 19.5705 1.54751 19.6129 1.76992 19.631C1.97386 19.6477 2.21589 19.6477 2.47019 19.6477H16.3298C16.5841 19.6477 16.8261 19.6477 17.0301 19.631C17.2525 19.6129 17.5076 19.5705 17.7626 19.4406C18.1201 19.2584 18.4108 18.9677 18.5929 18.6102C18.7228 18.3553 18.7652 18.1002 18.7834 17.8777C18.8001 17.6738 18.8 17.4318 18.8 17.1775V3.3179C18.8 3.0636 18.8001 2.82152 18.7834 2.61757C18.7652 2.39516 18.7228 2.14006 18.5929 1.88508C18.4108 1.52757 18.1201 1.23691 17.7626 1.05475C17.5076 0.92483 17.2525 0.882445 17.0301 0.864273C16.8261 0.847609 16.5841 0.847633 16.3298 0.847658H2.47025ZM1.80002 2.74761C1.80002 2.69239 1.84479 2.64761 1.90002 2.64761H16.9C16.9552 2.64761 17 2.69239 17 2.74761V6.84844H1.80002V2.74761ZM1.80002 8.64844V17.7476C1.80002 17.8028 1.84479 17.8476 1.90002 17.8476H5.99984V8.64844H1.80002ZM7.79984 17.8476H16.9C16.9552 17.8476 17 17.8028 17 17.7476V8.64844H7.79984V17.8476Z" fill="#5E2BE8"/>
</svg>
