<svg width="38" height="38" viewBox="0 0 38 38" fill="none" xmlns="http://www.w3.org/2000/svg">
<path fill-rule="evenodd" clip-rule="evenodd" d="M32.2729 15.0852C31.9231 14.9716 31.5463 14.9716 31.1965 15.0852C30.947 15.1663 30.7542 15.3042 30.5982 15.4366C30.4552 15.558 30.2984 15.7149 30.1335 15.8797L30.1142 15.899L18 28.0133V31.8536H21.8403L27.8974 25.7965L33.9545 19.7394L33.9738 19.7201C34.1387 19.5552 34.2956 19.3984 34.417 19.2554C34.5494 19.0994 34.6873 18.9066 34.7683 18.6571C34.882 18.3073 34.882 17.9305 34.7683 17.5807C34.6873 17.3312 34.5494 17.1384 34.417 16.9825C34.2956 16.8395 34.1387 16.6826 33.9739 16.5178L33.3358 15.8797C33.171 15.7149 33.0141 15.558 32.8711 15.4366C32.7152 15.3042 32.5224 15.1663 32.2729 15.0852ZM31.6698 16.6768C31.7056 16.641 31.7637 16.641 31.7995 16.6768L33.1767 18.0541C33.2125 18.0899 33.2125 18.1479 33.1767 18.1837L21.1569 30.2036H19.65V28.6967L31.6698 16.6768Z" fill="#5E2BE8" stroke="#5E2BE8" stroke-width="0.3"/>
<path d="M20.291 33.9638C20.291 33.5588 20.536 33.2305 20.8382 33.2305H31.4772C31.7794 33.2305 32.0243 33.5588 32.0243 33.9638C32.0243 34.3688 31.7794 34.6971 31.4772 34.6971H20.8382C20.536 34.6971 20.291 34.3688 20.291 33.9638Z" fill="#5E2BE8"/>
<path d="M12.0098 13.0098C12.0098 13.5697 11.5558 14.0237 10.9959 14.0237C10.4359 14.0237 9.98197 13.5697 9.98197 13.0098C9.98197 12.4498 10.4359 11.9959 10.9959 11.9959C11.5558 11.9959 12.0098 12.4498 12.0098 13.0098Z" fill="#5E2BE8"/>
<path d="M18.0931 13.0098C18.0931 13.5697 17.6392 14.0237 17.0792 14.0237C16.5193 14.0237 16.0653 13.5697 16.0653 13.0098C16.0653 12.4498 16.5193 11.9959 17.0792 11.9959C17.6392 11.9959 18.0931 12.4498 18.0931 13.0098Z" fill="#5E2BE8"/>
<path fill-rule="evenodd" clip-rule="evenodd" d="M10.5375 16.0736C10.9732 15.8205 11.5317 15.9685 11.7849 16.4043C12.2474 17.2005 13.1098 17.7346 14.0882 17.7346C15.0667 17.7346 15.929 17.2005 16.3916 16.4043C16.6448 15.9685 17.2032 15.8205 17.639 16.0736C18.0748 16.3268 18.2228 16.8853 17.9696 17.321C17.1952 18.654 15.7459 19.5596 14.0882 19.5596C12.4306 19.5596 10.9812 18.654 10.2068 17.321C9.95369 16.8853 10.1017 16.3268 10.5375 16.0736Z" fill="#5E2BE8"/>
<path fill-rule="evenodd" clip-rule="evenodd" d="M14.0375 6.82502C9.50189 6.82502 5.82501 10.5019 5.82501 15.0376C5.82501 19.5733 9.50189 23.2502 14.0375 23.2502C18.5732 23.2502 22.2501 19.5733 22.2501 15.0376C22.2501 10.5019 18.5732 6.82502 14.0375 6.82502ZM4 15.0376C4 9.49398 8.49396 5 14.0375 5C19.5811 5 24.0751 9.49398 24.0751 15.0376C24.0751 20.5812 19.5811 25.0752 14.0375 25.0752C8.49396 25.0752 4 20.5812 4 15.0376Z" fill="#5E2BE8"/>
</svg>
