<svg width="38" height="38" viewBox="0 0 38 38" fill="none" xmlns="http://www.w3.org/2000/svg">
<path d="M20.0438 20.1175H17.0167V23.1446H20.0438V20.1175Z" fill="white"/>
<path fill-rule="evenodd" clip-rule="evenodd" d="M18.2274 10.128H8.74258V7H6.92631V10.1288C6.68046 10.1305 6.45746 10.1357 6.26177 10.1517C5.95322 10.1769 5.63351 10.2334 5.32227 10.392C4.8666 10.6241 4.49613 10.9946 4.26395 11.4503C4.10536 11.7615 4.04885 12.0812 4.02364 12.3898C3.99996 12.6795 3.99998 13.0292 4 13.4242V23.7837C3.99998 24.1787 3.99996 24.5283 4.02364 24.8181C4.04885 25.1266 4.10536 25.4463 4.26395 25.7576C4.49613 26.2132 4.8666 26.5837 5.32227 26.8159C5.63351 26.9745 5.95322 27.031 6.26177 27.0562C6.5515 27.0799 6.90109 27.0799 7.29609 27.0798H20.6828C21.0778 27.0799 21.4274 27.0799 21.7172 27.0562C22.0257 27.031 22.3454 26.9745 22.6567 26.8159C23.1123 26.5837 23.4828 26.2132 23.715 25.7576C23.8736 25.4463 23.9301 25.1266 23.9553 24.8181C23.979 24.5283 23.979 24.1787 23.9789 23.7837V13.4242C23.979 13.0292 23.979 12.6795 23.9553 12.3898C23.9301 12.0812 23.8736 11.7615 23.715 11.4503C23.4828 10.9946 23.1123 10.6241 22.6567 10.392C22.3454 10.2334 22.0257 10.1769 21.7172 10.1517C21.4274 10.128 21.0778 10.128 20.6828 10.128L20.0437 10.128V7H18.2274V10.128ZM6.40967 11.9619C6.21345 11.9779 6.15936 12.0039 6.14683 12.0103C6.03292 12.0683 5.9403 12.1609 5.88226 12.2748C5.87587 12.2874 5.84991 12.3415 5.83387 12.5377C5.81697 12.7445 5.81627 13.019 5.81627 13.4578V15.2742H22.1627V13.4578C22.1627 13.019 22.162 12.7445 22.1451 12.5377C22.129 12.3415 22.1031 12.2874 22.0967 12.2748C22.0386 12.1609 21.946 12.0683 21.8321 12.0103C21.8196 12.0039 21.7655 11.9779 21.5693 11.9619C21.3624 11.945 21.0879 11.9443 20.6491 11.9443H7.32982C6.891 11.9443 6.61651 11.945 6.40967 11.9619ZM5.81627 23.75V17.0905H22.1627V23.75C22.1627 24.1888 22.162 24.4633 22.1451 24.6702C22.129 24.8664 22.1031 24.9205 22.0967 24.933C22.0386 25.0469 21.946 25.1395 21.8321 25.1976C21.8196 25.204 21.7655 25.2299 21.5693 25.246C21.3624 25.2629 21.0879 25.2636 20.6491 25.2636H7.32982C6.891 25.2636 6.61651 25.2629 6.40967 25.246C6.21345 25.2299 6.15936 25.204 6.14683 25.1976C6.03292 25.1395 5.9403 25.0469 5.88226 24.933C5.87587 24.9205 5.84991 24.8664 5.83387 24.6702C5.81697 24.4633 5.81627 24.1888 5.81627 23.75Z" fill="white"/>
<path d="M14.9989 20.1175H11.9718V23.1446H14.9989V20.1175Z" fill="white"/>
<path d="M31.4655 17.0962L31.4655 17.0962L31.485 17.0767L31.378 16.9697L31.485 17.0767C31.6526 16.9091 31.8062 16.7556 31.9448 16.6379C32.0949 16.5105 32.2721 16.3852 32.4973 16.312C32.8198 16.2072 33.1673 16.2072 33.4899 16.312L33.5366 16.1681L33.4899 16.312C33.7151 16.3852 33.8922 16.5105 34.0423 16.6379C34.1809 16.7556 34.3345 16.9091 34.5022 17.0767L34.5022 17.0767L35.146 17.7205L35.146 17.7206C35.3136 17.8882 35.4671 18.0418 35.5848 18.1804L35.7001 18.0824L35.5848 18.1804C35.7122 18.3305 35.8375 18.5076 35.9107 18.7328C36.0155 19.0554 36.0155 19.4029 35.9107 19.7254C35.8375 19.9506 35.7122 20.1278 35.5848 20.2779L35.7001 20.3759L35.5848 20.2779C35.4671 20.4165 35.3136 20.5701 35.146 20.7377L35.253 20.8448L35.1459 20.7377L35.1265 20.7572L35.1265 20.7572L29.0146 26.8691L22.9471 32.9366H19.2861V29.2756L31.4655 17.0962ZM33.166 17.667L33.059 17.774L33.166 17.667C33.0708 17.5718 32.9164 17.5718 32.8211 17.667L20.6926 29.7955L20.6483 29.8399V29.9026V31.4231V31.5744H20.7997H22.3202H22.3829L22.4272 31.5301L34.5557 19.4015C34.6509 19.3063 34.6509 19.1519 34.5557 19.0567L33.166 17.667Z" fill="white" stroke="white" stroke-width="0.302711"/>
</svg>
