<svg width="24" height="24" viewBox="0 0 24 24" fill="none" xmlns="http://www.w3.org/2000/svg">
<path fill-rule="evenodd" clip-rule="evenodd" d="M11.9996 2.60156C12.3412 2.60156 12.6533 2.79486 12.8054 3.10062L15.2007 7.91444L20.5671 4.9732C20.8752 4.80433 21.2534 4.8302 21.5357 5.03946C21.8179 5.24872 21.9526 5.6031 21.8805 5.94699L19.6305 16.6861C19.5432 17.103 19.1756 17.4016 18.7496 17.4016H5.24964C4.82372 17.4016 4.45611 17.103 4.36877 16.6861L2.11877 5.94699C2.04672 5.6031 2.18138 5.24872 2.46363 5.03946C2.74588 4.8302 3.1241 4.80433 3.43221 4.9732L8.79855 7.91444L11.1939 3.10062C11.346 2.79486 11.6581 2.60156 11.9996 2.60156ZM11.9996 5.5218L9.9929 9.55468C9.88381 9.77392 9.69009 9.93924 9.45642 10.0125C9.22275 10.0858 8.96932 10.0607 8.75457 9.94297L4.2814 7.49127L5.98062 15.6016H18.0187L19.7179 7.49127L15.2447 9.94297C15.03 10.0607 14.7765 10.0858 14.5429 10.0125C14.3092 9.93924 14.1155 9.77392 14.0064 9.55468L11.9996 5.5218Z" fill="#5E2BE8"/>
<path fill-rule="evenodd" clip-rule="evenodd" d="M4.59964 20.0016C4.59964 19.5045 5.00259 19.1016 5.49964 19.1016H18.4996C18.9967 19.1016 19.3996 19.5045 19.3996 20.0016C19.3996 20.4986 18.9967 20.9016 18.4996 20.9016H5.49964C5.00259 20.9016 4.59964 20.4986 4.59964 20.0016Z" fill="#5E2BE8"/>
</svg>
