<svg width="38" height="38" viewBox="0 0 38 38" fill="none" xmlns="http://www.w3.org/2000/svg">
<path fill-rule="evenodd" clip-rule="evenodd" d="M4.99115 4.01869C5.2206 3.99995 5.4929 3.99997 5.77901 4H15.8973L21.8999 10.3028V23.496C21.9 23.7821 21.9 24.0544 21.8812 24.2838C21.8608 24.5341 21.8131 24.8211 21.667 25.1079C21.462 25.5101 21.135 25.8371 20.7328 26.042C20.446 26.1882 20.159 26.2359 19.9088 26.2563C19.6793 26.2751 19.407 26.275 19.1209 26.275H5.77895C5.49286 26.275 5.22059 26.2751 4.99115 26.2563C4.74094 26.2359 4.45394 26.1882 4.16709 26.042C3.7649 25.8371 3.4379 25.5101 3.23298 25.1079C3.08682 24.8211 3.03914 24.5341 3.01869 24.2838C2.99995 24.0544 2.99997 23.7821 3 23.496V6.77902C2.99997 6.49291 2.99995 6.22061 3.01869 5.99115C3.03914 5.74094 3.08682 5.45395 3.23298 5.1671C3.4379 4.7649 3.7649 4.43791 4.16709 4.23298C4.45394 4.08682 4.74094 4.03914 4.99115 4.01869ZM5.02498 6.13728C5.02498 6.07515 5.07535 6.02478 5.13748 6.02478H13.6874V11.6502H19.8749V24.1373C19.8749 24.1994 19.8246 24.2498 19.7624 24.2498H5.13748C5.07535 24.2498 5.02498 24.1994 5.02498 24.1373V6.13728ZM15.7124 9.62522V6.74197L18.4584 9.62522H15.7124Z" fill="white"/>
<path fill-rule="evenodd" clip-rule="evenodd" d="M32.2729 15.0852C31.9231 14.9716 31.5463 14.9716 31.1965 15.0852C30.947 15.1663 30.7542 15.3042 30.5982 15.4366C30.4552 15.558 30.2984 15.7149 30.1335 15.8797L30.1142 15.899L18 28.0133V31.8536H21.8403L27.8974 25.7965L33.9545 19.7394L33.9738 19.7201C34.1387 19.5552 34.2956 19.3984 34.417 19.2554C34.5494 19.0994 34.6873 18.9066 34.7683 18.6571C34.882 18.3073 34.882 17.9305 34.7683 17.5807C34.6873 17.3312 34.5494 17.1384 34.417 16.9825C34.2956 16.8395 34.1387 16.6826 33.9739 16.5178L33.3358 15.8797C33.171 15.7149 33.0141 15.558 32.8711 15.4366C32.7152 15.3042 32.5224 15.1663 32.2729 15.0852ZM31.6698 16.6768C31.7056 16.641 31.7637 16.641 31.7995 16.6768L33.1767 18.0541C33.2125 18.0899 33.2125 18.1479 33.1767 18.1837L21.1569 30.2036H19.65V28.6967L31.6698 16.6768Z" fill="white" stroke="white" stroke-width="0.3"/>
<path d="M20.291 33.9638C20.291 33.5588 20.536 33.2305 20.8382 33.2305H31.4772C31.7794 33.2305 32.0243 33.5588 32.0243 33.9638C32.0243 34.3688 31.7794 34.6971 31.4772 34.6971H20.8382C20.536 34.6971 20.291 34.3688 20.291 33.9638Z" fill="white"/>
</svg>
