<svg width="38" height="38" viewBox="0 0 38 38" fill="none" xmlns="http://www.w3.org/2000/svg">
<path d="M30.4655 17.0962L30.4655 17.0962L30.485 17.0767L30.378 16.9697L30.485 17.0767C30.6526 16.9091 30.8062 16.7556 30.9448 16.6379C31.0949 16.5105 31.2721 16.3852 31.4973 16.312C31.8198 16.2072 32.1673 16.2072 32.4899 16.312L32.5366 16.1681L32.4899 16.312C32.7151 16.3852 32.8922 16.5105 33.0423 16.6379C33.1809 16.7556 33.3345 16.9091 33.5022 17.0767L33.5022 17.0767L34.146 17.7205L34.146 17.7206C34.3136 17.8882 34.4671 18.0418 34.5848 18.1804L34.7001 18.0824L34.5848 18.1804C34.7122 18.3305 34.8375 18.5076 34.9107 18.7328C35.0155 19.0554 35.0155 19.4029 34.9107 19.7254C34.8375 19.9506 34.7122 20.1278 34.5848 20.2779L34.7001 20.3759L34.5848 20.2779C34.4671 20.4165 34.3136 20.5701 34.146 20.7377L34.253 20.8448L34.1459 20.7377L34.1265 20.7572L34.1265 20.7572L28.0146 26.8691L21.9471 32.9366H18.2861V29.2756L30.4655 17.0962ZM32.166 17.667L32.059 17.774L32.166 17.667C32.0708 17.5718 31.9164 17.5718 31.8211 17.667L19.6926 29.7955L19.6483 29.8399V29.9026V31.4231V31.5744H19.7997H21.3202H21.3829L21.4272 31.5301L33.5557 19.4015C33.6509 19.3063 33.6509 19.1519 33.5557 19.0567L32.166 17.667Z" fill="white" stroke="white" stroke-width="0.302711"/>
<path fill-rule="evenodd" clip-rule="evenodd" d="M7.47025 8C7.21592 7.99998 6.97388 7.99995 6.76992 8.01662C6.54751 8.03479 6.2924 8.07717 6.03742 8.20709C5.67991 8.38925 5.38925 8.67991 5.20709 9.03742C5.07717 9.2924 5.03479 9.54751 5.01662 9.76992C4.99995 9.97388 4.99998 10.2159 5 10.4702V24.3298C4.99998 24.5841 4.99995 24.8261 5.01662 25.0301C5.03479 25.2525 5.07717 25.5076 5.20709 25.7626C5.38925 26.1201 5.67991 26.4108 6.03742 26.5929C6.2924 26.7228 6.54751 26.7652 6.76992 26.7834C6.97386 26.8001 7.21589 26.8 7.47019 26.8H21.3298C21.5841 26.8 21.8261 26.8001 22.0301 26.7834C22.2525 26.7652 22.5076 26.7228 22.7626 26.5929C23.1201 26.4108 23.4108 26.1201 23.5929 25.7626C23.7228 25.5076 23.7652 25.2525 23.7834 25.0301C23.8001 24.8261 23.8 24.5841 23.8 24.3298V10.4702C23.8 10.2159 23.8001 9.97386 23.7834 9.76992C23.7652 9.54751 23.7228 9.2924 23.5929 9.03742C23.4108 8.67991 23.1201 8.38925 22.7626 8.20709C22.5076 8.07717 22.2525 8.03479 22.0301 8.01662C21.8261 7.99995 21.5841 7.99998 21.3298 8H7.47025ZM6.80002 9.89996C6.80002 9.84473 6.84479 9.79996 6.90002 9.79996H21.9C21.9552 9.79996 22 9.84473 22 9.89996V14.0008H6.80002V9.89996ZM6.80002 15.8008V24.9C6.80002 24.9552 6.84479 25 6.90002 25H10.9998V15.8008H6.80002ZM12.7998 25H21.9C21.9552 25 22 24.9552 22 24.9V15.8008H12.7998V25Z" fill="white"/>
</svg>
