<svg width="1260" height="367" viewBox="0 0 1260 367" fill="none" xmlns="http://www.w3.org/2000/svg">
<path d="M239.327 348.125L241.785 354.766L248.426 357.224L241.785 359.681L239.327 366.323L236.87 359.681L230.229 357.224L236.87 354.766L239.327 348.125Z" fill="#F1ECFE"/>
<path d="M941.491 329.926L943.949 336.567L950.59 339.025L943.949 341.482L941.491 348.123L939.034 341.482L932.393 339.025L939.034 336.567L941.491 329.926Z" fill="#F1ECFE"/>
<path d="M1169.48 221.039L1171.94 227.68L1178.58 230.138L1171.94 232.595L1169.48 239.237L1167.02 232.595L1160.38 230.138L1167.02 227.68L1169.48 221.039Z" fill="#51FC8A"/>
<path d="M1242.42 1.92188L1246.99 14.2866L1259.36 18.862L1246.99 23.4374L1242.42 35.8021L1237.84 23.4374L1225.48 18.862L1237.84 14.2866L1242.42 1.92188Z" fill="#F1ECFE"/>
<path d="M151.15 278.293L153.608 284.934L160.249 287.392L153.608 289.849L151.15 296.491L148.693 289.849L142.051 287.392L148.693 284.934L151.15 278.293Z" fill="#F1ECFE"/>
<path d="M13.4843 188.785L17.0807 198.504L26.7997 202.101L17.0807 205.697L13.4843 215.416L9.88796 205.697L0.168945 202.101L9.88796 198.504L13.4843 188.785Z" fill="#51FC8A"/>
<path d="M94.56 0L98.1564 9.71902L107.875 13.3154L98.1564 16.9117L94.56 26.6307L90.9636 16.9117L81.2446 13.3154L90.9636 9.71902L94.56 0Z" fill="#F1ECFE"/>
<path d="M919.078 131.082L922.674 140.801L932.393 144.397L922.674 147.994L919.078 157.713L915.481 147.994L905.762 144.397L915.481 140.801L919.078 131.082Z" fill="#F1ECFE"/>
</svg>
