<svg width="74" height="22" viewBox="0 0 74 22" fill="none" xmlns="http://www.w3.org/2000/svg">
<path d="M64.7927 18.7177L64.7927 18.7177L64.7908 18.7171C64.606 18.6562 64.4305 18.589 64.2642 18.5156C63.6067 18.2255 62.7231 18.3755 62.3759 19.0473C62.0129 19.7499 62.1704 20.6566 62.9089 21.0211C63.2737 21.2012 63.6729 21.3541 64.1061 21.4801C65.0227 21.7466 65.9907 21.8796 67.0099 21.8796C68.9437 21.8796 70.4314 21.3753 71.4546 20.3503C72.4789 19.3241 72.981 17.766 72.981 15.6978V7.81433C72.981 6.96166 72.289 6.27056 71.4365 6.27056C70.6791 6.27056 70.0486 6.81649 69.9182 7.5364C69.1131 6.57954 67.9838 6.10412 66.5438 6.10412C65.5681 6.10412 64.6696 6.33741 63.8503 6.80454C63.0432 7.25824 62.4017 7.90349 61.9266 8.73785C61.4502 9.57433 61.2135 10.5362 61.2135 11.6201C61.2135 12.7041 61.4502 13.6659 61.9266 14.5024C62.4016 15.3366 63.0428 15.9885 63.8494 16.456L63.8494 16.456L63.8512 16.4571C64.6704 16.91 65.5686 17.1361 66.5438 17.1361C67.8731 17.1361 68.9416 16.7301 69.7381 15.9116V16.1139C69.7381 17.1245 69.4895 17.8547 69.0125 18.3265L69.0125 18.3265L69.0105 18.3285C68.5466 18.8124 67.8102 19.0654 66.7768 19.0654C66.1164 19.0654 65.4552 18.9498 64.7927 18.7177ZM69.0309 9.71861L69.0309 9.71863L69.0329 9.72059C69.5269 10.1969 69.777 10.8265 69.777 11.6201C69.777 12.4137 69.5269 13.0509 69.0319 13.5414C68.5497 14.0183 67.9243 14.2595 67.1458 14.2595C66.3676 14.2595 65.7353 14.0185 65.2398 13.541C64.7451 13.0505 64.4952 12.4135 64.4952 11.6201C64.4952 10.8265 64.7453 10.1969 65.2393 9.72059L65.2393 9.7206L65.2403 9.71957C65.736 9.2283 66.3682 8.98074 67.1458 8.98074C67.9234 8.98074 68.5485 9.22828 69.0309 9.71861Z" fill="white" stroke="white" stroke-width="0.213631"/>
<path d="M55.579 9.75287L55.579 9.75288L55.5801 9.75415C55.9193 10.1564 56.0987 10.7855 56.0987 11.6617V16.0556C56.0987 16.9511 56.8246 17.6771 57.7201 17.6771C58.6156 17.6771 59.3415 16.9511 59.3415 16.0556V11.1624C59.3415 9.5099 58.9364 8.24447 58.108 7.38538C57.2955 6.52932 56.224 6.10412 54.9045 6.10412C54.1794 6.10412 53.511 6.23831 52.901 6.50812C52.3703 6.73072 51.9138 7.03994 51.5324 7.43575C51.4134 6.77326 50.8341 6.27056 50.1373 6.27056H50.0013C49.1434 6.27056 48.4479 6.96607 48.4479 7.82403V16.0556C48.4479 16.9511 49.1738 17.6771 50.0693 17.6771C50.9648 17.6771 51.6908 16.9511 51.6908 16.0556V12.0362C51.6908 11.0516 51.9143 10.3331 52.3427 9.86111L52.3427 9.86112L52.3437 9.86003C52.774 9.37262 53.3518 9.12637 54.0889 9.12637C54.7499 9.12637 55.2409 9.33884 55.579 9.75287Z" fill="white" stroke="white" stroke-width="0.213631"/>
<path d="M45.6618 4.37494L45.6618 4.37495L45.6633 4.37345C46.0337 3.99128 46.2177 3.51312 46.2177 2.94681C46.2177 2.4194 46.0318 1.97498 45.6603 1.62118C45.2878 1.26649 44.8069 1.0924 44.2273 1.0924C43.6465 1.0924 43.165 1.27426 42.7928 1.6435C42.4221 2.01123 42.2369 2.46891 42.2369 3.00922C42.2369 3.54953 42.4221 4.00721 42.7928 4.37494C43.165 4.74418 43.6465 4.92603 44.2273 4.92603C44.8082 4.92603 45.2896 4.74418 45.6618 4.37494ZM44.2273 6.27275C43.3318 6.27275 42.6059 6.99869 42.6059 7.89419V16.0578C42.6059 16.9533 43.3318 17.6793 44.2273 17.6793C45.1228 17.6793 45.8488 16.9533 45.8488 16.0578V7.89419C45.8488 6.99869 45.1228 6.27275 44.2273 6.27275Z" fill="white" stroke="white" stroke-width="0.213631"/>
<path d="M39.926 17.6763L39.926 17.6763L39.9283 17.6757C39.9786 17.6614 40.028 17.6465 40.0765 17.6308C40.7752 17.4048 40.9748 16.6171 40.7491 15.9683L40.6091 15.5659C40.5227 15.3177 40.3249 15.1555 40.0975 15.0684C39.871 14.9816 39.6079 14.9659 39.3706 15.0137C39.2415 15.0397 39.1071 15.0528 38.9671 15.0528C38.576 15.0528 38.2916 14.936 38.0967 14.7155C37.8983 14.4774 37.7923 14.1376 37.7923 13.6825V9.23307H39.0199C39.7682 9.23307 40.3749 8.62637 40.3749 7.87797C40.3749 7.12958 39.7683 6.52288 39.0199 6.52288H37.7923V5.41892C37.7923 4.52342 37.0664 3.79748 36.1709 3.79748C35.2754 3.79748 34.5494 4.52343 34.5494 5.41892V13.7241C34.5494 15.059 34.8906 16.0889 35.5901 16.7951C36.289 17.5007 37.2844 17.8462 38.5593 17.8462C39.0339 17.8462 39.4896 17.7897 39.926 17.6763Z" fill="white" stroke="white" stroke-width="0.213631"/>
<path d="M27.64 17.4612L27.64 17.4612L27.642 17.4603C28.1382 17.2254 28.5741 16.9045 28.9495 16.4983C29.0711 17.1696 29.6585 17.6786 30.3648 17.6786H30.4702C31.3228 17.6786 32.014 16.9874 32.014 16.1348V7.89353C32.014 6.99803 31.288 6.27209 30.3926 6.27209C29.4971 6.27209 28.7711 6.99803 28.7711 7.89353V11.9129C28.7711 12.8975 28.554 13.6241 28.1371 14.1105C27.7192 14.5843 27.1672 14.8228 26.4701 14.8228C25.7889 14.8228 25.2946 14.6065 24.9667 14.1876C24.635 13.7637 24.4603 13.1155 24.4603 12.225V7.89353C24.4603 6.99803 23.7343 6.27209 22.8388 6.27209C21.9433 6.27209 21.2174 6.99803 21.2174 7.89353V12.7035C21.2174 14.3835 21.6225 15.6696 22.4507 16.5427C23.277 17.4137 24.3945 17.845 25.7904 17.845C26.4518 17.845 27.0688 17.7174 27.64 17.4612Z" fill="white" stroke="white" stroke-width="0.213631"/>
<path d="M1.42435 14.4518L1.42434 14.4518L1.42507 14.4531C2.08148 15.6064 2.97507 16.5147 4.10481 17.1762L4.10614 17.177C5.24958 17.8247 6.52364 18.1479 7.92593 18.1479C9.11767 18.1479 10.2013 17.9233 11.1748 17.4722C11.7586 17.2017 12.2861 16.8575 12.7569 16.4396C13.3498 15.9132 13.2641 15.0196 12.7205 14.4819C12.0686 13.8372 11.0348 13.9494 10.3021 14.4264C9.65038 14.8506 8.91759 15.0632 8.10069 15.0632C7.27665 15.0632 6.54508 14.8733 5.90303 14.4958C5.26035 14.1041 4.75602 13.5642 4.38942 12.8737C4.03589 12.1835 3.85782 11.3964 3.85782 10.5098C3.85782 9.62319 4.03589 8.83604 4.38942 8.14585C4.756 7.45543 5.26014 6.9227 5.90233 6.54495L5.90234 6.54496L5.90375 6.5441C6.54576 6.15298 7.27705 5.95637 8.10069 5.95637C8.91821 5.95637 9.65145 6.16662 10.3034 6.58612C11.0355 7.05724 12.0643 7.16573 12.7135 6.52374C13.2603 5.98295 13.3426 5.08298 12.7414 4.55895C12.2746 4.15208 11.7523 3.81493 11.1751 3.54746C10.2142 3.09623 9.13696 2.8717 7.94535 2.8717C6.52997 2.8717 5.24915 3.20186 4.10548 3.86377C2.97502 4.51165 2.08119 5.42036 1.42479 6.58777L1.42461 6.58809C0.780485 7.74298 0.459591 9.05112 0.459591 10.5098C0.459591 11.9685 0.78049 13.2833 1.42435 14.4518Z" fill="white" stroke="white" stroke-width="0.213631"/>
</svg>
