<svg width="154" height="45" viewBox="0 0 154 45" fill="none" xmlns="http://www.w3.org/2000/svg">
<path d="M136.103 37.8873L136.103 37.8872L136.099 37.8859C135.71 37.7577 135.34 37.6163 134.99 37.4618C133.606 36.8509 131.745 37.1668 131.015 38.5813C130.25 40.0605 130.582 41.9695 132.137 42.737C132.905 43.1161 133.745 43.438 134.657 43.7033C136.587 44.2645 138.625 44.5445 140.771 44.5445C144.843 44.5445 147.975 43.4828 150.129 41.3246C152.286 39.164 153.343 35.8834 153.343 31.529V14.9306C153.343 13.1353 151.886 11.6802 150.091 11.6802C148.497 11.6802 147.169 12.8297 146.895 14.3454C145.2 12.3308 142.822 11.3298 139.79 11.3298C137.736 11.3298 135.844 11.821 134.119 12.8045C132.419 13.7598 131.069 15.1183 130.068 16.875C129.065 18.6362 128.567 20.6613 128.567 22.9436C128.567 25.2258 129.065 27.2509 130.068 29.0121C131.069 30.7685 132.419 32.141 134.117 33.1253L134.117 33.1253L134.121 33.1275C135.846 34.0813 137.737 34.5573 139.79 34.5573C142.589 34.5573 144.838 33.7024 146.515 31.9792V32.4051C146.515 34.5329 145.992 36.0703 144.988 37.0636L144.988 37.0635L144.983 37.0678C144.007 38.0867 142.456 38.6193 140.281 38.6193C138.89 38.6193 137.498 38.3758 136.103 37.8873ZM145.026 18.94L145.026 18.94L145.031 18.9441C146.071 19.947 146.597 21.2725 146.597 22.9436C146.597 24.6145 146.071 25.956 145.028 26.9889C144.013 27.9929 142.696 28.5007 141.057 28.5007C139.419 28.5007 138.088 27.9932 137.044 26.9879C136.003 25.9551 135.477 24.614 135.477 22.9436C135.477 21.2725 136.003 19.947 137.043 18.9441L137.043 18.9442L137.045 18.942C138.089 17.9076 139.42 17.3864 141.057 17.3864C142.695 17.3864 144.011 17.9076 145.026 18.94Z" fill="#2C2E35" stroke="#2C2E35" stroke-width="0.449793"/>
<path d="M116.71 19.0121L116.71 19.0121L116.713 19.0148C117.427 19.8618 117.804 21.1863 117.804 23.0312V32.2823C117.804 34.1678 119.333 35.6962 121.218 35.6962C123.104 35.6962 124.632 34.1678 124.632 32.2823V21.9799C124.632 18.5005 123.779 15.8362 122.035 14.0274C120.324 12.225 118.068 11.3298 115.29 11.3298C113.763 11.3298 112.356 11.6123 111.072 12.1804C109.955 12.6491 108.993 13.3001 108.19 14.1335C107.94 12.7386 106.72 11.6802 105.253 11.6802H104.967C103.16 11.6802 101.696 13.1446 101.696 14.951V32.2823C101.696 34.1678 103.224 35.6962 105.11 35.6962C106.995 35.6962 108.524 34.1678 108.524 32.2823V23.8196C108.524 21.7466 108.995 20.2339 109.896 19.24L109.896 19.24L109.898 19.2377C110.804 18.2115 112.021 17.693 113.573 17.693C114.965 17.693 115.999 18.1404 116.71 19.0121Z" fill="#2C2E35" stroke="#2C2E35" stroke-width="0.449793"/>
<path d="M95.8347 7.68637L95.8348 7.6864L95.8378 7.68323C96.6177 6.87859 97.0051 5.87185 97.0051 4.67949C97.0051 3.56904 96.6136 2.63334 95.8314 1.88842C95.0473 1.14163 94.0347 0.775103 92.8144 0.775103C91.5915 0.775103 90.5778 1.15799 89.7941 1.93542C89.0137 2.70966 88.6237 3.67329 88.6237 4.81089C88.6237 5.9485 89.0137 6.91213 89.7941 7.68637C90.5778 8.4638 91.5915 8.84668 92.8144 8.84668C94.0373 8.84668 95.0511 8.4638 95.8347 7.68637ZM92.8144 11.6821C90.929 11.6821 89.4005 13.2106 89.4005 15.096V32.2843C89.4005 34.1697 90.929 35.6982 92.8144 35.6982C94.6999 35.6982 96.2283 34.1697 96.2283 32.2843V15.096C96.2283 13.2106 94.6999 11.6821 92.8144 11.6821Z" fill="#2C2E35" stroke="#2C2E35" stroke-width="0.449793"/>
<path d="M83.7487 35.6918L83.7487 35.6919L83.7535 35.6905C83.8593 35.6605 83.9633 35.629 84.0654 35.5959C85.5366 35.1203 85.9568 33.4617 85.4816 32.0957L85.1868 31.2484C85.005 30.7259 84.5884 30.3843 84.1096 30.2009C83.6327 30.0182 83.0788 29.9851 82.5793 30.0857C82.3075 30.1404 82.0244 30.168 81.7297 30.168C80.9063 30.168 80.3075 29.9223 79.897 29.458C79.4794 28.9565 79.2562 28.2412 79.2562 27.2829V17.9149H81.8407C83.4165 17.9149 84.6938 16.6375 84.6938 15.0618C84.6938 13.486 83.4165 12.2087 81.8407 12.2087H79.2562V9.8843C79.2562 7.99886 77.7277 6.47042 75.8423 6.47042C73.9569 6.47042 72.4284 7.99887 72.4284 9.8843V27.3705C72.4284 30.1812 73.1468 32.3496 74.6195 33.8365C76.0911 35.3221 78.1867 36.0494 80.8711 36.0494C81.8703 36.0494 82.8297 35.9305 83.7487 35.6918Z" fill="#2C2E35" stroke="#2C2E35" stroke-width="0.449793"/>
<path d="M57.8817 35.2396L57.8817 35.2397L57.8859 35.2377C58.9305 34.7432 59.8484 34.0676 60.6388 33.2124C60.8948 34.6256 62.1315 35.6974 63.6185 35.6974H63.8406C65.6357 35.6974 67.0909 34.2421 67.0909 32.447V15.0952C67.0909 13.2098 65.5625 11.6814 63.677 11.6814C61.7916 11.6814 60.2632 13.2098 60.2632 15.0952V23.5579C60.2632 25.6309 59.806 27.1608 58.9283 28.1849C58.0485 29.1824 56.8861 29.6845 55.4184 29.6845C53.9843 29.6845 52.9434 29.2292 52.2532 28.3472C51.5547 27.4548 51.1869 26.09 51.1869 24.215V15.0952C51.1869 13.2098 49.6584 11.6814 47.773 11.6814C45.8875 11.6814 44.3591 13.2098 44.3591 15.0952V25.2225C44.3591 28.7597 45.2119 31.4676 46.9557 33.3057C48.6955 35.1397 51.0484 36.0478 53.9874 36.0478C55.38 36.0478 56.679 35.779 57.8817 35.2396Z" fill="#2C2E35" stroke="#2C2E35" stroke-width="0.449793"/>
<path d="M2.6882 28.8988L2.68818 28.8988L2.68972 28.9015C4.07177 31.3299 5.9532 33.2422 8.33182 34.635L8.33462 34.6366C10.7421 36.0003 13.4246 36.6807 16.3771 36.6807C18.8862 36.6807 21.1677 36.2079 23.2175 35.2582C24.4467 34.6887 25.5573 33.964 26.5484 33.084C27.7968 31.9756 27.6165 30.0943 26.4718 28.9622C25.0992 27.6047 22.9227 27.8411 21.3799 28.8454C20.0078 29.7385 18.465 30.1861 16.745 30.1861C15.01 30.1861 13.4698 29.7863 12.118 28.9915C10.7648 28.1668 9.70294 27.03 8.93107 25.5762C8.18672 24.123 7.81179 22.4657 7.81179 20.599C7.81179 18.7323 8.18672 17.075 8.93107 15.6218C9.70288 14.1682 10.7643 13.0465 12.1164 12.2512L12.1165 12.2512L12.1194 12.2494C13.4712 11.4259 15.0109 11.0119 16.745 11.0119C18.4663 11.0119 20.0101 11.4546 21.3827 12.3379C22.9243 13.3298 25.0904 13.5582 26.4571 12.2065C27.6084 11.0679 27.7817 9.17307 26.5158 8.06974C25.533 7.21309 24.4334 6.50323 23.2181 5.94008C21.195 4.99002 18.9268 4.51729 16.4179 4.51729C13.4379 4.51729 10.7412 5.21243 8.33322 6.60606C5.9531 7.97014 4.07116 9.88342 2.68914 12.3414L2.68876 12.342C1.33257 14.7736 0.656939 17.5278 0.656939 20.599C0.656939 23.6702 1.33258 26.4386 2.6882 28.8988Z" fill="#2C2E35" stroke="#2C2E35" stroke-width="0.449793"/>
<path d="M35.2183 2.15792C33.4396 2.15792 31.9978 3.59981 31.9978 5.37847V33.4915C31.9978 35.2701 33.4396 36.712 35.2183 36.712C36.997 36.712 38.4389 35.2701 38.4389 33.4915V5.37846C38.4389 3.5998 36.997 2.15792 35.2183 2.15792Z" fill="#2C2E35" stroke="#2C2E35" stroke-width="0.449793"/>
</svg>
