<svg width="24" height="24" viewBox="0 0 24 24" fill="none" xmlns="http://www.w3.org/2000/svg">
<path fill-rule="evenodd" clip-rule="evenodd" d="M16.1 5.1H6.7001V2H4.9001V5.10078C4.65645 5.10244 4.43545 5.10758 4.24152 5.12343C3.93573 5.14841 3.61888 5.20442 3.31042 5.36158C2.85883 5.59168 2.49168 5.95883 2.26159 6.41042C2.10442 6.71888 2.04841 7.03573 2.02343 7.34151C1.99996 7.62867 1.99998 7.97516 2 8.36667V18.6333C1.99998 19.0248 1.99996 19.3713 2.02343 19.6585C2.04841 19.9643 2.10442 20.2811 2.26159 20.5896C2.49168 21.0412 2.85883 21.4083 3.31042 21.6384C3.61888 21.7956 3.93573 21.8516 4.24152 21.8766C4.52865 21.9 4.8751 21.9 5.26657 21.9H18.5333C18.9248 21.9 19.2714 21.9 19.5585 21.8766C19.8643 21.8516 20.1811 21.7956 20.4896 21.6384C20.9412 21.4083 21.3083 21.0412 21.5384 20.5896C21.6956 20.2811 21.7516 19.9643 21.7766 19.6585C21.8 19.3713 21.8 19.0248 21.8 18.6333V8.36666C21.8 7.97518 21.8 7.62865 21.7766 7.34151C21.7516 7.03573 21.6956 6.71888 21.5384 6.41042C21.3083 5.95883 20.9412 5.59168 20.4896 5.36158C20.1811 5.20442 19.8643 5.14841 19.5585 5.12343C19.2713 5.09996 18.9248 5.09998 18.5333 5.1L17.9 5.1V2H16.1V5.1ZM4.38809 6.91745C4.19362 6.93334 4.14002 6.95907 4.12761 6.9654C4.01471 7.02292 3.92292 7.11471 3.8654 7.22761C3.85907 7.24002 3.83334 7.29362 3.81745 7.48809C3.8007 7.69307 3.8 7.96511 3.8 8.4V10.2001H20V8.4C20 7.96511 19.9993 7.69307 19.9826 7.48809C19.9667 7.29362 19.9409 7.24002 19.9346 7.22761C19.8771 7.11471 19.7853 7.02292 19.6724 6.9654C19.66 6.95907 19.6064 6.93334 19.4119 6.91745C19.2069 6.9007 18.9349 6.9 18.5 6.9H5.3C4.86511 6.9 4.59307 6.9007 4.38809 6.91745ZM3.8 18.6V12.0001H20V18.6C20 19.0349 19.9993 19.3069 19.9826 19.5119C19.9667 19.7064 19.9409 19.76 19.9346 19.7724C19.8771 19.8853 19.7853 19.9771 19.6724 20.0346C19.66 20.0409 19.6064 20.0667 19.4119 20.0826C19.2069 20.0993 18.9349 20.1 18.5 20.1H5.3C4.86511 20.1 4.59307 20.0993 4.38809 20.0826C4.19362 20.0667 4.14002 20.0409 4.12761 20.0346C4.01471 19.9771 3.92292 19.8853 3.8654 19.7724C3.85907 19.76 3.83334 19.7064 3.81745 19.5119C3.8007 19.3069 3.8 19.0349 3.8 18.6Z" fill="#727586"/>
<path d="M14.8821 14.1667C15.1044 14.389 15.1044 14.7493 14.8821 14.9716L11.9418 17.912C11.7195 18.1342 11.3591 18.1342 11.1369 17.912L9.1667 15.9418C8.94443 15.7195 8.94443 15.3591 9.1667 15.1369C9.38897 14.9146 9.74935 14.9146 9.97162 15.1369L11.5393 16.7046L14.0772 14.1667C14.2995 13.9444 14.6599 13.9444 14.8821 14.1667Z" fill="#727586" stroke="#727586" stroke-width="0.3"/>
</svg>
