<svg width="26" height="32" viewBox="0 0 26 32" fill="none" xmlns="http://www.w3.org/2000/svg">
<path fill-rule="evenodd" clip-rule="evenodd" d="M5.66243 0.117189C5.67996 0.11719 5.69756 0.117191 5.71521 0.117191L20.3346 0.117189C20.9544 0.11716 21.503 0.117133 21.9577 0.154281C22.4419 0.193838 22.9435 0.28252 23.4319 0.531363C24.1469 0.89568 24.7283 1.477 25.0926 2.19201C25.3414 2.6804 25.4301 3.18208 25.4697 3.66623C25.5068 4.12089 25.5068 4.6695 25.5068 5.28938L25.5067 30.042C25.5067 30.5567 25.2292 31.0314 24.7806 31.2839C24.332 31.5363 23.7822 31.5272 23.3422 31.2601L12.9985 24.98L2.65477 31.2601C2.21479 31.5272 1.66496 31.5363 1.21639 31.2839C0.767815 31.0314 0.490238 30.5567 0.490238 30.042V5.34216C0.490238 5.32451 0.490237 5.30692 0.490236 5.28938C0.490206 4.6695 0.49018 4.12089 0.527328 3.66623C0.566885 3.18208 0.655566 2.6804 0.90441 2.19201C1.26873 1.477 1.85005 0.89568 2.56506 0.531363C3.05344 0.282519 3.55512 0.193838 4.03928 0.154281C4.49394 0.117133 5.04255 0.11716 5.66243 0.117189ZM4.27136 2.9948C3.96345 3.01996 3.87858 3.0607 3.85893 3.07072C3.68017 3.1618 3.53484 3.30713 3.44376 3.48588C3.43375 3.50553 3.393 3.5904 3.36784 3.89831C3.34133 4.22286 3.34022 4.65359 3.34022 5.34216V27.5098L12.259 22.0948C12.7134 21.8189 13.2836 21.8189 13.738 22.0948L22.6568 27.5098V5.34216C22.6568 4.65359 22.6557 4.22286 22.6291 3.89831C22.604 3.5904 22.5632 3.50553 22.5532 3.48588C22.4621 3.30713 22.3168 3.1618 22.1381 3.07072C22.1184 3.0607 22.0335 3.01996 21.7256 2.9948C21.4011 2.96828 20.9704 2.96717 20.2818 2.96717H5.71521C5.02663 2.96717 4.59591 2.96828 4.27136 2.9948Z" fill="#3B3D46"/>
</svg>
