<svg width="38" height="38" viewBox="0 0 38 38" fill="none" xmlns="http://www.w3.org/2000/svg">
<g id="Shape">
<path id="Vector" fill-rule="evenodd" clip-rule="evenodd" d="M11.6624 4.11719C11.68 4.11719 11.6976 4.11719 11.7152 4.11719L26.3346 4.11719C26.9544 4.11716 27.503 4.11713 27.9577 4.15428C28.4419 4.19384 28.9435 4.28252 29.4319 4.53136C30.1469 4.89568 30.7283 5.477 31.0926 6.19201C31.3414 6.6804 31.4301 7.18208 31.4697 7.66623C31.5068 8.12089 31.5068 8.6695 31.5068 9.28938L31.5067 34.042C31.5067 34.5567 31.2292 35.0314 30.7806 35.2839C30.332 35.5363 29.7822 35.5272 29.3422 35.2601L18.9985 28.98L8.65477 35.2601C8.21479 35.5272 7.66496 35.5363 7.21639 35.2839C6.76782 35.0314 6.49024 34.5567 6.49024 34.042V9.34216C6.49024 9.32451 6.49024 9.30692 6.49024 9.28938C6.49021 8.6695 6.49018 8.12089 6.52733 7.66623C6.56688 7.18208 6.65557 6.6804 6.90441 6.19201C7.26873 5.477 7.85005 4.89568 8.56506 4.53136C9.05344 4.28252 9.55512 4.19384 10.0393 4.15428C10.4939 4.11713 11.0425 4.11716 11.6624 4.11719ZM10.2714 6.9948C9.96345 7.01996 9.87858 7.0607 9.85893 7.07072C9.68017 7.1618 9.53484 7.30713 9.44376 7.48588C9.43375 7.50553 9.393 7.5904 9.36784 7.89831C9.34133 8.22286 9.34022 8.65359 9.34022 9.34216V31.5098L18.259 26.0948C18.7134 25.8189 19.2836 25.8189 19.738 26.0948L28.6568 31.5098V9.34216C28.6568 8.65359 28.6557 8.22286 28.6291 7.89831C28.604 7.5904 28.5632 7.50553 28.5532 7.48588C28.4621 7.30713 28.3168 7.1618 28.1381 7.07072C28.1184 7.0607 28.0335 7.01996 27.7256 6.9948C27.4011 6.96828 26.9704 6.96717 26.2818 6.96717H11.7152C11.0266 6.96717 10.5959 6.96828 10.2714 6.9948Z" fill="#3B3D46"/>
</g>
</svg>
