<svg width="18" height="18" viewBox="0 0 18 18" fill="none" xmlns="http://www.w3.org/2000/svg">
<path fill-rule="evenodd" clip-rule="evenodd" d="M0.125173 4C0.125173 3.24569 0.53596 2.63184 1.04837 2.17754C1.5618 1.72233 2.25482 1.35236 3.03608 1.05939C4.60506 0.471024 6.71388 0.125 9.00016 0.125C11.2864 0.125 13.3953 0.471024 14.9642 1.05939C15.7455 1.35236 16.4385 1.72233 16.952 2.17754C17.4644 2.63184 17.8752 3.24569 17.8752 4V8.58055C17.8754 8.59321 17.8754 8.60586 17.8752 8.61848V11.8804C17.8754 11.893 17.8754 11.9057 17.8752 11.9183V13.7958C17.8752 14.848 17.2947 15.8722 16.2713 16.3269C10.3273 18.9677 4.6265 17.6863 1.63753 16.3176C0.641336 15.8614 0.125173 14.8584 0.125173 13.8676V11.9165C0.124943 11.905 0.124942 11.8934 0.125173 11.8818V8.6167C0.124943 8.60515 0.124942 8.59357 0.125173 8.58198V4ZM1.87517 4C1.87517 3.92588 1.9121 3.75052 2.20933 3.48699C2.50555 3.22437 2.9841 2.94789 3.65055 2.69797C4.977 2.20055 6.86817 1.875 9.00016 1.875C11.1322 1.875 13.0233 2.20055 14.3498 2.69797C15.0162 2.94789 15.4948 3.22437 15.791 3.48699C16.0882 3.75052 16.1252 3.92588 16.1252 4C16.1252 4.07412 16.0882 4.24948 15.791 4.51301C15.4948 4.77563 15.0162 5.05211 14.3498 5.30203C13.0233 5.79945 11.1322 6.125 9.00016 6.125C6.86817 6.125 4.977 5.79945 3.65055 5.30203C2.9841 5.05211 2.50555 4.77563 2.20933 4.51301C1.9121 4.24948 1.87517 4.07412 1.87517 4ZM16.1252 6.40487V8.03532C10.2027 10.5999 4.4361 9.23331 1.87517 8.05676V6.40487C2.2278 6.60619 2.61939 6.78435 3.03608 6.94061C4.60506 7.52898 6.71388 7.875 9.00016 7.875C11.2864 7.875 13.3953 7.52898 14.9642 6.94061C15.3809 6.78435 15.7725 6.60619 16.1252 6.40487ZM1.87517 13.8676V13.2548C4.90663 14.4355 10.3973 15.448 16.1252 13.2264V13.7958C16.1252 14.2253 15.8914 14.5807 15.5608 14.7276C10.2014 17.1087 5.04117 15.9514 2.36612 14.7265C2.08483 14.5977 1.87517 14.2819 1.87517 13.8676ZM1.87517 11.3566C4.4361 12.5331 10.2027 13.8997 16.1252 11.3351V9.92663C10.3973 12.1482 4.90663 11.1357 1.87517 9.955V11.3566Z" fill="#727586"/>
</svg>
