<svg width="18" height="20" viewBox="0 0 18 20" fill="none" xmlns="http://www.w3.org/2000/svg">
<path d="M6.99951 13.8018C7.34326 13.8018 7.63753 13.6794 7.88232 13.4346C8.12711 13.1898 8.24951 12.8955 8.24951 12.5518C8.24951 12.208 8.12711 11.9137 7.88232 11.6689C7.63753 11.4242 7.34326 11.3018 6.99951 11.3018C6.65576 11.3018 6.36149 11.4242 6.11669 11.6689C5.8719 11.9137 5.74951 12.208 5.74951 12.5518C5.74951 12.8955 5.8719 13.1898 6.11669 13.4346C6.36149 13.6794 6.65576 13.8018 6.99951 13.8018ZM4.49951 16.3018H9.4995V15.9424C9.4995 15.6924 9.4318 15.4632 9.29638 15.2549C9.16096 15.0465 8.97346 14.8903 8.73388 14.7861C8.46305 14.6715 8.1844 14.583 7.89794 14.5205C7.61149 14.458 7.31201 14.4268 6.99951 14.4268C6.68701 14.4268 6.38753 14.458 6.10107 14.5205C5.81461 14.583 5.53597 14.6715 5.26513 14.7861C5.02555 14.8903 4.83805 15.0465 4.70263 15.2549C4.56722 15.4632 4.49951 15.6924 4.49951 15.9424V16.3018Z" fill="#727586"/>
<path fill-rule="evenodd" clip-rule="evenodd" d="M2.36952 0.118179C2.57348 0.101514 2.81553 0.101538 3.06985 0.101565H12.0639L17.3996 5.70406V17.4313C17.3996 17.6856 17.3996 17.9277 17.383 18.1316C17.3648 18.3541 17.3224 18.6092 17.1925 18.8641C17.0103 19.2216 16.7197 19.5123 16.3622 19.6945C16.1072 19.8244 15.8521 19.8668 15.6297 19.8849C15.4257 19.9016 15.1837 19.9016 14.9294 19.9016H3.06979C2.81549 19.9016 2.57347 19.9016 2.36952 19.8849C2.14711 19.8668 1.89201 19.8244 1.63703 19.6945C1.27952 19.5123 0.988859 19.2216 0.8067 18.8641C0.676783 18.6092 0.634398 18.3541 0.616226 18.1316C0.599562 17.9277 0.599585 17.6856 0.599612 17.4313V2.57181C0.599585 2.31748 0.599562 2.07544 0.616226 1.87148C0.634398 1.64907 0.676783 1.39396 0.8067 1.13898C0.988859 0.781475 1.27952 0.490811 1.63703 0.308652C1.89201 0.178735 2.14711 0.13635 2.36952 0.118179ZM2.3996 2.00137C2.3996 1.94614 2.44437 1.90137 2.4996 1.90137H10.0996V6.90176H15.5996V18.0014C15.5996 18.0566 15.5548 18.1014 15.4996 18.1014H2.4996C2.44437 18.1014 2.3996 18.0566 2.3996 18.0014V2.00137ZM11.8996 5.10176V2.53887L14.3404 5.10176H11.8996Z" fill="#727586"/>
</svg>
