<svg width="24" height="25" viewBox="0 0 24 25" fill="none" xmlns="http://www.w3.org/2000/svg">
<path d="M3.125 6.75C3.125 6.26675 3.51675 5.875 4 5.875H20C20.4832 5.875 20.875 6.26675 20.875 6.75C20.875 7.23325 20.4832 7.625 20 7.625H4C3.51675 7.625 3.125 7.23325 3.125 6.75Z" fill="#727586"/>
<path d="M3.125 18.75C3.125 18.2668 3.51675 17.875 4 17.875H14C14.4832 17.875 14.875 18.2668 14.875 18.75C14.875 19.2332 14.4832 19.625 14 19.625H4C3.51675 19.625 3.125 19.2332 3.125 18.75Z" fill="#727586"/>
<path d="M4 11.875C3.51675 11.875 3.125 12.2668 3.125 12.75C3.125 13.2332 3.51675 13.625 4 13.625H20C20.4832 13.625 20.875 13.2332 20.875 12.75C20.875 12.2668 20.4832 11.875 20 11.875H4Z" fill="#727586"/>
</svg>
