<svg width="49" height="49" viewBox="0 0 49 49" fill="none" xmlns="http://www.w3.org/2000/svg">
<path fill-rule="evenodd" clip-rule="evenodd" d="M42.3031 30.502L42.3031 37.3627C42.3032 37.8713 42.3032 38.3554 42.2699 38.7633C42.2335 39.2081 42.1488 39.7183 41.8889 40.2283C41.5246 40.9433 40.9433 41.5246 40.2283 41.889C39.7183 42.1488 39.2081 42.2336 38.7633 42.2699C38.3554 42.3032 37.8713 42.3032 37.3627 42.3031H11.6435C11.1349 42.3032 10.6507 42.3032 10.2428 42.2699C9.79803 42.2336 9.28781 42.1488 8.77785 41.889C8.06283 41.5246 7.48151 40.9433 7.11719 40.2283C6.85735 39.7183 6.77258 39.2081 6.73623 38.7633C6.70291 38.3554 6.70295 37.8713 6.70301 37.3626V30.502H10.303V38.5025C10.303 38.613 10.3926 38.7025 10.503 38.7025H38.5031C38.6135 38.7025 38.7031 38.613 38.7031 38.5025V30.502H42.3031Z" fill="#A3A8BF"/>
<path d="M34.3138 17.7368C33.6324 18.4607 32.4933 18.4952 31.7694 17.8139L26.303 12.6691V31.5035C26.303 32.4976 25.4971 33.3035 24.503 33.3035C23.5089 33.3035 22.703 32.4976 22.703 31.5035V12.6691L17.2367 17.8139C16.5128 18.4952 15.3736 18.4607 14.6922 17.7368C14.0109 17.0129 14.0454 15.8737 14.7694 15.1924L23.2693 7.19236C23.9624 6.54005 25.0436 6.54005 25.7367 7.19236L34.2367 15.1924C34.9606 15.8737 34.9951 17.0129 34.3138 17.7368Z" fill="#A3A8BF"/>
</svg>
