<svg width="24" height="24" viewBox="0 0 24 24" fill="none" xmlns="http://www.w3.org/2000/svg">
<path fill-rule="evenodd" clip-rule="evenodd" d="M3.50968 0.246096C3.19178 0.246065 2.88922 0.246035 2.63427 0.266865C2.35626 0.289579 2.03737 0.342562 1.71865 0.504958C1.27177 0.732657 0.908439 1.09599 0.680739 1.54287C0.518343 1.86159 0.465361 2.18048 0.442646 2.45849C0.421816 2.71344 0.421846 3.016 0.421877 3.3339V20.6583C0.421846 20.9762 0.421816 21.2788 0.442646 21.5337C0.465361 21.8117 0.518343 22.1306 0.680739 22.4493C0.908439 22.8962 1.27177 23.2595 1.71865 23.4872C2.03737 23.6496 2.35626 23.7026 2.63427 23.7253C2.8892 23.7462 3.19173 23.7461 3.50961 23.7461H20.8341C21.152 23.7461 21.4546 23.7462 21.7095 23.7253C21.9875 23.7026 22.3064 23.6496 22.6251 23.4872C23.072 23.2595 23.4353 22.8962 23.663 22.4493C23.8254 22.1306 23.8784 21.8117 23.9011 21.5337C23.9219 21.2788 23.9219 20.9762 23.9219 20.6584V3.3339C23.9219 3.01602 23.9219 2.71342 23.9011 2.45849C23.8784 2.18048 23.8254 1.86159 23.663 1.54287C23.4353 1.09599 23.072 0.732657 22.6251 0.504958C22.3064 0.342562 21.9875 0.289579 21.7095 0.266865C21.4545 0.246035 21.152 0.246065 20.8341 0.246096H3.50968ZM2.6719 2.62104C2.6719 2.55201 2.72786 2.49604 2.7969 2.49604H21.5469C21.6159 2.49604 21.6719 2.55201 21.6719 2.62104V14.2808L18.4217 11.0306L14.0467 15.4056L7.7967 9.15559L2.6719 14.2804V2.62104ZM2.6719 17.4624V21.371C2.6719 21.4401 2.72786 21.496 2.79689 21.496H21.5469C21.6159 21.496 21.6719 21.4401 21.6719 21.371V17.4628L18.4217 14.2126L14.0467 18.5876L7.7967 12.3376L2.6719 17.4624ZM18.7342 6.99658C18.7342 7.85953 18.0347 8.55908 17.1717 8.55908C16.3088 8.55908 15.6092 7.85953 15.6092 6.99658C15.6092 6.13364 16.3088 5.43408 17.1717 5.43408C18.0347 5.43408 18.7342 6.13364 18.7342 6.99658Z" fill="#565965"/>
</svg>
