<svg width="24" height="24" viewBox="0 0 24 24" fill="none" xmlns="http://www.w3.org/2000/svg">
<path fill-rule="evenodd" clip-rule="evenodd" d="M18.1194 5.88174C16.8125 4.57483 14.6936 4.57484 13.3867 5.88174L10.4982 8.77021L9.22541 7.49742L12.1139 4.60894C14.1238 2.59911 17.3823 2.59909 19.3922 4.60894C21.4021 6.61879 21.4021 9.87741 19.3922 11.8873L16.5037 14.7758L15.2309 13.503L18.1194 10.6145C19.4263 9.30757 19.4263 7.18865 18.1194 5.88174ZM15.7724 9.50156L9.49961 15.7744L8.22681 14.5016L14.4996 8.22877L15.7724 9.50156ZM7.7724 11.5044L5.87979 13.3887C4.5734 14.6956 4.57305 16.8146 5.87979 18.1214C7.18646 19.4281 9.30485 19.4283 10.6118 18.1221L12.4968 16.2288L13.7724 17.4988L11.8867 19.3928L11.8853 19.3942C9.87546 21.404 6.61684 21.404 4.60699 19.3942C2.59714 17.3843 2.59716 14.1257 4.60699 12.1159L6.50241 10.2288L7.7724 11.5044Z" fill="#F1F3FF"/>
</svg>
