<svg width="24" height="25" viewBox="0 0 24 25" fill="none" xmlns="http://www.w3.org/2000/svg">
<path d="M3.4 5.35156C2.6268 5.35156 2 5.97836 2 6.75156C2 7.52476 2.6268 8.15156 3.4 8.15156C4.1732 8.15156 4.8 7.52476 4.8 6.75156C4.8 5.97836 4.1732 5.35156 3.4 5.35156Z" fill="#3B3D46"/>
<path d="M3.4 17.3516C2.6268 17.3516 2 17.9784 2 18.7516C2 19.5248 2.6268 20.1516 3.4 20.1516C4.1732 20.1516 4.8 19.5248 4.8 18.7516C4.8 17.9784 4.1732 17.3516 3.4 17.3516Z" fill="#3B3D46"/>
<path d="M2 12.7516C2 11.9784 2.6268 11.3516 3.4 11.3516C4.1732 11.3516 4.8 11.9784 4.8 12.7516C4.8 13.5248 4.1732 14.1516 3.4 14.1516C2.6268 14.1516 2 13.5248 2 12.7516Z" fill="#3B3D46"/>
<path d="M7.99999 5.85146C7.50294 5.85146 7.1 6.25441 7.1 6.75146C7.1 7.24852 7.50294 7.65146 7.99999 7.65146H21C21.497 7.65146 21.9 7.24852 21.9 6.75146C21.9 6.25441 21.497 5.85146 21 5.85146H7.99999Z" fill="#3B3D46"/>
<path d="M7.1 18.7515C7.1 18.2544 7.50294 17.8515 7.99999 17.8515H21C21.497 17.8515 21.9 18.2544 21.9 18.7515C21.9 19.2485 21.497 19.6515 21 19.6515H7.99999C7.50294 19.6515 7.1 19.2485 7.1 18.7515Z" fill="#3B3D46"/>
<path d="M7.99999 11.8515C7.50294 11.8515 7.1 12.2544 7.1 12.7515C7.1 13.2485 7.50294 13.6515 7.99999 13.6515H21C21.497 13.6515 21.9 13.2485 21.9 12.7515C21.9 12.2544 21.497 11.8515 21 11.8515H7.99999Z" fill="#3B3D46"/>
</svg>
