<svg width="20" height="20" viewBox="0 0 20 20" fill="none" xmlns="http://www.w3.org/2000/svg">
<path fill-rule="evenodd" clip-rule="evenodd" d="M10.0006 0.101562C7.77534 0.101562 5.94594 0.889354 4.68845 2.37589C3.44832 3.84191 2.85058 5.88466 2.85058 8.25156L2.85058 9.00156C2.85058 11.4667 2.16735 12.9264 1.19423 13.8697C0.812686 14.2395 0.773083 14.7513 0.909468 15.1279C1.04817 15.5108 1.42827 15.9016 2.00014 15.9016H18.001C18.5729 15.9016 18.953 15.5108 19.0917 15.1279C19.2281 14.7513 19.1885 14.2395 18.8069 13.8697C17.8338 12.9264 17.1506 11.4667 17.1506 9.00156L17.1506 8.25156C17.1506 5.88466 16.5528 3.84191 15.3127 2.37589C14.0552 0.889354 12.2258 0.101562 10.0006 0.101562ZM4.65058 8.25156C4.65058 6.16668 5.17784 4.58444 6.0627 3.5384C6.93021 2.51288 8.22582 1.90156 10.0006 1.90156C11.7753 1.90156 13.0709 2.51288 13.9384 3.5384C14.8233 4.58444 15.3506 6.16668 15.3506 8.25156L15.3506 9.00156C15.3506 11.1643 15.8187 12.8287 16.6693 14.1016H3.33186C4.18244 12.8287 4.65058 11.1643 4.65058 9.00156L4.65058 8.25156Z" fill="#8B8FA4"/>
<path d="M7.1007 18.1016V19.9016H12.9007V18.1016H7.1007Z" fill="#8B8FA4"/>
</svg>
