<svg width="35" height="34" viewBox="0 0 35 34" fill="none" xmlns="http://www.w3.org/2000/svg">
<path d="M13.4911 28.4543C14.4936 29.2552 15.8175 29.7422 17.2689 29.7422C18.7202 29.7422 20.0441 29.2552 21.0467 28.4543M6.65469 24.3331C6.05741 24.3331 5.72381 23.3947 6.08511 22.8734C6.92347 21.6637 7.73266 19.8895 7.73266 17.7529L7.76724 14.657C7.76724 8.90508 12.0213 4.24219 17.2689 4.24219C22.5938 4.24219 26.9105 8.97376 26.9105 14.8104L26.8759 17.7529C26.8759 19.9042 27.6572 21.6881 28.4615 22.8983C28.8088 23.4209 28.4743 24.3331 27.8844 24.3331H6.65469Z" stroke="#737373" stroke-width="2" stroke-linecap="round" stroke-linejoin="round"/>
<circle cx="27.3129" cy="5.40075" r="3.86364" fill="#FF6C6C"/>
</svg>
