<svg width="42" height="42" viewBox="0 0 42 42" fill="none" xmlns="http://www.w3.org/2000/svg">
<circle cx="20.8466" cy="21.1923" r="20.3603" fill="#D0D4E7"/>
<path fill-rule="evenodd" clip-rule="evenodd" d="M35.8487 34.8224C32.1274 38.8707 26.7877 41.4078 20.8554 41.4078C14.6049 41.4078 9.01219 38.5912 5.27734 34.158C5.51168 33.9683 5.75262 33.8224 5.96496 33.6938C10.2718 31.0802 15.2135 29.6671 20.2566 29.6671C25.2999 29.6671 30.2418 31.0803 34.5488 33.6942C34.8812 33.8955 35.2838 34.1394 35.6214 34.527C35.7016 34.6191 35.7777 34.7182 35.8487 34.8224ZM20.2564 11.6055C15.8129 11.6055 12.2107 15.2077 12.2107 19.6512C12.2107 24.0948 15.8129 27.697 20.2564 27.697C24.7 27.697 28.3022 24.0948 28.3022 19.6512C28.3022 15.2077 24.7 11.6055 20.2564 11.6055Z" fill="#A3A8BF"/>
</svg>
