<svg width="35" height="34" viewBox="0 0 35 34" fill="none" xmlns="http://www.w3.org/2000/svg">
<circle cx="17.916" cy="16.9922" r="17" fill="#E5E5EA"/>
<circle cx="17.916" cy="16.9922" r="17" fill="#E5E5EA"/>
<path d="M7.87109 25.0822C7.87109 20.9795 11.1717 17.6536 17.9165 17.6536C24.6614 17.6536 27.962 20.9795 27.962 25.0822C27.962 25.7349 27.5034 26.264 26.9378 26.264H8.89534C8.32966 26.264 7.87109 25.7349 7.87109 25.0822Z" stroke="#C7C7CC" stroke-width="1.54545"/>
<path d="M21.6836 9.31232C21.6836 11.4728 19.997 13.2243 17.9165 13.2243C15.8361 13.2243 14.1495 11.4728 14.1495 9.31232C14.1495 7.15182 15.8361 5.40039 17.9165 5.40039C19.997 5.40039 21.6836 7.15182 21.6836 9.31232Z" stroke="#C7C7CC" stroke-width="1.54545"/>
</svg>
