<svg width="20" height="20" viewBox="0 0 20 20" fill="none" xmlns="http://www.w3.org/2000/svg">
<path d="M15.9998 13H12.9998V16H15.9998V13Z" fill="#727586"/>
<path fill-rule="evenodd" clip-rule="evenodd" d="M14.1996 3.1H4.79971V0H2.99971V3.10078C2.75606 3.10244 2.53506 3.10758 2.34112 3.12343C2.03534 3.14841 1.71849 3.20442 1.41003 3.36158C0.958444 3.59168 0.591291 3.95883 0.361195 4.41042C0.204029 4.71888 0.148019 5.03573 0.123036 5.34151C0.0995743 5.62867 0.0995908 5.97516 0.0996105 6.36667V16.6333C0.0995908 17.0248 0.0995743 17.3713 0.123036 17.6585C0.148019 17.9643 0.204029 18.2811 0.361195 18.5896C0.591291 19.0412 0.958444 19.4083 1.41003 19.6384C1.71849 19.7956 2.03534 19.8516 2.34112 19.8766C2.62825 19.9 2.97471 19.9 3.36618 19.9H16.6329C17.0244 19.9 17.371 19.9 17.6581 19.8766C17.9639 19.8516 18.2807 19.7956 18.5892 19.6384C19.0408 19.4083 19.4079 19.0412 19.638 18.5896C19.7952 18.2811 19.8512 17.9643 19.8762 17.6585C19.8996 17.3713 19.8996 17.0248 19.8996 16.6333V6.36666C19.8996 5.97518 19.8996 5.62865 19.8762 5.34151C19.8512 5.03573 19.7952 4.71888 19.638 4.41042C19.4079 3.95883 19.0408 3.59168 18.5892 3.36158C18.2807 3.20442 17.9639 3.14841 17.6581 3.12343C17.3709 3.09996 17.0245 3.09998 16.6329 3.1L15.9996 3.1V0H14.1996V3.1ZM2.4877 4.91745C2.29323 4.93334 2.23963 4.95907 2.22722 4.9654C2.11432 5.02292 2.02253 5.11471 1.96501 5.22761C1.95868 5.24002 1.93295 5.29362 1.91706 5.48809C1.90031 5.69307 1.89961 5.96511 1.89961 6.4V8.2001H18.0996V6.4C18.0996 5.96511 18.0989 5.69307 18.0822 5.48809C18.0663 5.29362 18.0405 5.24002 18.0342 5.22761C17.9767 5.11471 17.8849 5.02292 17.772 4.9654C17.7596 4.95907 17.706 4.93334 17.5115 4.91745C17.3065 4.9007 17.0345 4.9 16.5996 4.9H3.39961C2.96472 4.9 2.69268 4.9007 2.4877 4.91745ZM1.89961 16.6V10.0001H18.0996V16.6C18.0996 17.0349 18.0989 17.3069 18.0822 17.5119C18.0663 17.7064 18.0405 17.76 18.0342 17.7724C17.9767 17.8853 17.8849 17.9771 17.772 18.0346C17.7596 18.0409 17.706 18.0667 17.5115 18.0826C17.3065 18.0993 17.0345 18.1 16.5996 18.1H3.39961C2.96472 18.1 2.69268 18.0993 2.4877 18.0826C2.29323 18.0667 2.23963 18.0409 2.22722 18.0346C2.11432 17.9771 2.02253 17.8853 1.96501 17.7724C1.95868 17.76 1.93295 17.7064 1.91706 17.5119C1.90031 17.3069 1.89961 17.0349 1.89961 16.6Z" fill="#727586"/>
</svg>
