<svg width="22" height="17" viewBox="0 0 22 17" fill="none" xmlns="http://www.w3.org/2000/svg">
<path fill-rule="evenodd" clip-rule="evenodd" d="M14.002 1.90156C12.8422 1.90156 11.902 2.84176 11.902 4.00156C11.902 5.16136 12.8422 6.10156 14.002 6.10156C15.1618 6.10156 16.102 5.16136 16.102 4.00156C16.102 2.84176 15.1618 1.90156 14.002 1.90156ZM10.102 4.00156C10.102 1.84765 11.8481 0.101562 14.002 0.101562C16.1559 0.101562 17.902 1.84765 17.902 4.00156C17.902 6.15547 16.1559 7.90156 14.002 7.90156C11.8481 7.90156 10.102 6.15547 10.102 4.00156ZM9.55138 12.1171C8.44554 12.8544 7.9019 13.774 7.9019 14.6681C7.9019 14.812 7.90099 14.9558 7.90372 15.0997C11.8691 15.1748 15.8362 15.1015 19.8019 15.1015C19.9013 15.1015 20.0007 15.1015 20.1001 15.0996C20.1028 14.9558 20.1019 14.812 20.1019 14.6681C20.1019 13.774 19.5583 12.8544 18.4524 12.1171C17.3529 11.3841 15.782 10.9015 14.0019 10.9015C12.2218 10.9015 10.6509 11.3841 9.55138 12.1171ZM8.55293 10.6195C9.98687 9.66349 11.916 9.10147 14.0019 9.10147C16.0878 9.10147 18.0169 9.66349 19.4509 10.6195C20.8785 11.5712 21.9019 12.9849 21.9019 14.6681C21.9019 14.9011 21.9077 15.135 21.8887 15.3674C21.8739 15.5481 21.8384 15.7723 21.7221 16.0005C21.5639 16.311 21.3115 16.5634 21.001 16.7216C20.7727 16.8379 20.5485 16.8735 20.3678 16.8883C20.2054 16.9015 20.0153 16.9015 19.8287 16.9015H8.17512C7.98847 16.9015 7.79845 16.9015 7.63601 16.8883C7.45529 16.8735 7.23106 16.8379 7.00282 16.7216C6.69235 16.5634 6.43993 16.311 6.28174 16.0005C6.16545 15.7723 6.12987 15.5481 6.11511 15.3674C6.09613 15.135 6.1019 14.9011 6.1019 14.6681C6.1019 12.9849 7.12527 11.5712 8.55293 10.6195ZM1.96689 11.7291C3.00802 11.035 4.38599 10.6256 5.86936 10.6026C5.38329 11.1691 4.97676 11.8147 4.6996 12.5323C4.01972 12.673 3.42721 12.9189 2.96535 13.2268C2.22144 13.7227 1.90166 14.309 1.90166 14.8349C1.90166 14.9233 1.90155 15.0117 1.903 15.1C2.70298 15.1133 3.50316 15.1014 4.30318 15.1014C4.30514 15.2317 4.30986 15.3764 4.32109 15.5139C4.34495 15.806 4.4108 16.2935 4.67793 16.8177C4.69225 16.8458 4.70695 16.8737 4.722 16.9014L2.14335 16.9014C1.97075 16.9014 1.79494 16.9014 1.64439 16.89C1.47725 16.8774 1.2694 16.847 1.05472 16.747C0.70284 16.583 0.420045 16.3002 0.256071 15.9483C0.156033 15.7336 0.125646 15.5258 0.112997 15.3586C0.0998179 15.1845 0.101639 15.0095 0.101657 14.8349C0.101657 13.5199 0.901166 12.4396 1.96689 11.7291ZM4.40178 6.00146C4.40178 5.39395 4.89427 4.90146 5.50178 4.90146C6.10929 4.90146 6.60178 5.39395 6.60178 6.00146C6.60178 6.60898 6.10929 7.10146 5.50178 7.10146C4.89427 7.10146 4.40178 6.60898 4.40178 6.00146ZM5.50178 3.10146C3.90015 3.10146 2.60178 4.39984 2.60178 6.00146C2.60178 7.60309 3.90015 8.90146 5.50178 8.90146C7.1034 8.90146 8.40178 7.60309 8.40178 6.00146C8.40178 4.39984 7.1034 3.10146 5.50178 3.10146Z" fill="#727586"/>
</svg>
