<svg width="22" height="20" viewBox="0 0 22 20" fill="none" xmlns="http://www.w3.org/2000/svg">
<path fill-rule="evenodd" clip-rule="evenodd" d="M5.49944 0.601562H4.59944V1.50156V4.10156H0.999609H0.0996094V5.00156C0.0996094 10.6113 4.54113 15.1837 10.0994 15.394V17.6016H5.49944C5.00239 17.6016 4.59944 18.0045 4.59944 18.5016C4.59944 18.9986 5.00239 19.4016 5.49944 19.4016H10.9994H16.4994C16.9965 19.4016 17.3994 18.9986 17.3994 18.5016C17.3994 18.0045 16.9965 17.6016 16.4994 17.6016H11.8994V15.394C17.4578 15.1838 21.8993 10.6113 21.8993 5.00156V4.10156H20.9993H17.3994V1.50156V0.601562H16.4994H5.49944ZM17.3994 5.90156V9.00156C17.3994 10.0101 17.1662 10.9641 16.7506 11.8127C18.5642 10.4124 19.803 8.30393 20.0528 5.90156H17.3994ZM5.24822 11.8126C4.83271 10.9641 4.59944 10.0101 4.59944 9.00156V5.90156H1.94614C2.19596 8.30389 3.43473 10.4123 5.24822 11.8126ZM6.39944 9.00156V2.40156H15.5994V9.00156C15.5994 11.5421 13.5399 13.6016 10.9994 13.6016C8.45893 13.6016 6.39944 11.5421 6.39944 9.00156Z" fill="#727586"/>
</svg>
