<svg width="18" height="20" viewBox="0 0 18 20" fill="none" xmlns="http://www.w3.org/2000/svg">
<path fill-rule="evenodd" clip-rule="evenodd" d="M2.36952 0.118178C2.57349 0.101514 2.81553 0.101538 3.06985 0.101565H12.0639L17.3996 5.70406L17.3996 17.4313C17.3996 17.6856 17.3997 17.9277 17.383 18.1316C17.3648 18.3541 17.3224 18.6092 17.1925 18.8641C17.0104 19.2216 16.7197 19.5123 16.3622 19.6945C16.1072 19.8244 15.8521 19.8668 15.6297 19.8849C15.4257 19.9016 15.1837 19.9016 14.9294 19.9016H3.06979C2.81549 19.9016 2.57347 19.9016 2.36952 19.8849C2.14712 19.8668 1.89201 19.8244 1.63703 19.6945C1.27952 19.5123 0.988859 19.2216 0.806699 18.8641C0.676782 18.6092 0.634396 18.3541 0.616225 18.1316C0.599561 17.9277 0.599585 17.6856 0.599612 17.4313V2.57181C0.599585 2.31748 0.599561 2.07544 0.616225 1.87148C0.634396 1.64907 0.676782 1.39396 0.806699 1.13898C0.988859 0.781475 1.27952 0.490812 1.63703 0.308652C1.89201 0.178735 2.14712 0.136349 2.36952 0.118178ZM2.3996 2.00137C2.3996 1.94614 2.44437 1.90137 2.4996 1.90137H10.0996V6.90176H15.5996V18.0014C15.5996 18.0566 15.5548 18.1014 15.4996 18.1014H2.4996C2.44437 18.1014 2.3996 18.0566 2.3996 18.0014V2.00137ZM11.8996 5.10176V2.53887L14.3404 5.10176H11.8996Z" fill="#727586"/>
<path d="M9.49963 13.302H4.49963V11.502H9.49963V13.302Z" fill="#727586"/>
<path d="M4.49963 16.302H9.49963V14.502H4.49963V16.302Z" fill="#727586"/>
</svg>
