<svg width="20" height="20" viewBox="0 0 20 20" fill="none" xmlns="http://www.w3.org/2000/svg">
<path d="M6.63196 3.18855C8.25859 2.38445 10.1192 2.18888 11.8775 2.63717C13.4183 3.03001 14.7914 3.89458 15.8094 5.10159L14 5.10159C13.5029 5.10159 13.1 5.50453 13.1 6.00159C13.1 6.49864 13.5029 6.90159 14 6.90159L18 6.90159C18.4971 6.90159 18.9 6.49864 18.9 6.00159V2.00159C18.9 1.50453 18.4971 1.10159 18 1.10159C17.5029 1.10159 17.1 1.50453 17.1 2.00159V3.84136C15.85 2.40056 14.1852 1.36797 12.3222 0.89297C10.1475 0.338501 7.84619 0.580401 5.83431 1.57494C3.82242 2.56947 2.23276 4.25101 1.35271 6.31554C0.472658 8.38007 0.360303 10.6913 1.03596 12.8315C1.71161 14.9717 3.13068 16.7995 5.03661 17.9844C6.94254 19.1694 9.20955 19.6334 11.4278 19.2925C13.646 18.9516 15.6691 17.8282 17.1312 16.1256C18.5933 14.423 19.398 12.2534 19.3999 10.0091C19.4003 9.51208 18.9976 9.10882 18.5006 9.10842C18.0035 9.10802 17.6003 9.51064 17.5999 10.0077C17.5984 11.8222 16.9478 13.5763 15.7656 14.9529C14.5835 16.3295 12.9478 17.2377 11.1544 17.5134C9.36089 17.789 7.52798 17.4139 5.98702 16.4558C4.44605 15.4977 3.29872 14.0199 2.75245 12.2896C2.20617 10.5593 2.29702 8.69057 3.00855 7.02138C3.72008 5.35218 5.00534 3.99264 6.63196 3.18855Z" fill="#5E2BE8"/>
</svg>
