<svg width="17" height="18" viewBox="0 0 17 18" fill="none" xmlns="http://www.w3.org/2000/svg">
<path fill-rule="evenodd" clip-rule="evenodd" d="M6.58737 0.790799C7.21395 0.649005 7.86625 0.574219 8.53553 0.574219C9.20486 0.574219 9.8572 0.649016 10.4838 0.790829C11.214 0.956075 11.5694 1.58532 11.7085 2.02896C11.8163 2.3729 12.0551 2.68478 12.414 2.88543C12.7502 3.07341 13.1291 3.12839 13.4868 3.06515C13.9473 2.98374 14.6442 3.0227 15.1158 3.5736C15.7153 4.27392 16.1994 5.0727 16.5382 5.9425C16.8511 6.74579 16.3884 7.45979 16.0037 7.81762C15.7092 8.0915 15.5331 8.46844 15.5331 8.88119C15.5331 9.29394 15.7092 9.67088 16.0037 9.94476C16.3884 10.3026 16.8511 11.0166 16.5382 11.8199C16.1996 12.6894 15.7156 13.488 15.1164 14.1882C14.6447 14.7393 13.9475 14.7782 13.487 14.6967C13.1293 14.6334 12.7503 14.6883 12.414 14.8763C12.0549 15.0771 11.8161 15.389 11.7084 15.7331C11.5694 16.1769 11.2139 16.8064 10.4836 16.9716C9.85702 17.1134 9.20476 17.1882 8.53553 17.1882C7.86626 17.1882 7.21397 17.1134 6.58739 16.9716C5.8572 16.8064 5.50175 16.1771 5.36269 15.7335C5.25488 15.3895 5.01611 15.0776 4.65718 14.877C4.32092 14.689 3.942 14.634 3.58428 14.6973C3.12384 14.7787 2.42688 14.7397 1.95528 14.1888C1.35579 13.4885 0.871655 12.6898 0.532883 11.82C0.219988 11.0166 0.682704 10.3026 1.06746 9.9448C1.36196 9.67091 1.5381 9.29396 1.5381 8.88119C1.5381 8.46841 1.36196 8.09146 1.06747 7.81758C0.682713 7.45974 0.22 6.74572 0.532899 5.94239C0.871659 5.07266 1.35576 4.27394 1.95521 3.57366C2.42681 3.02273 3.12379 2.98379 3.58424 3.06522C3.94196 3.12848 4.32089 3.0735 4.65714 2.88551C5.01608 2.68485 5.25486 2.37296 5.36266 2.029C5.50171 1.58533 5.85716 0.956041 6.58737 0.790799ZM6.94259 2.29693C6.9397 2.29964 6.9356 2.30383 6.93032 2.31003C6.90328 2.34171 6.86722 2.40243 6.83922 2.49177C6.615 3.20717 6.12154 3.83961 5.41223 4.23616C4.75086 4.6059 4.00793 4.71153 3.31477 4.58895C3.2322 4.57435 3.16959 4.57867 3.13458 4.58706C3.12879 4.58845 3.1245 4.58973 3.12146 4.59076C2.64062 5.15485 2.25353 5.79422 1.98157 6.48661C1.9826 6.49023 1.98415 6.49504 1.98646 6.50118C2.00315 6.54545 2.04605 6.61453 2.12127 6.68449C2.71117 7.23311 3.08548 8.01281 3.08548 8.88119C3.08548 9.74957 2.71116 10.5293 2.12126 11.0779C2.04603 11.1479 2.00314 11.2169 1.98645 11.2612C1.98414 11.2673 1.98259 11.2721 1.98155 11.2758C2.25352 11.9682 2.64064 12.6076 3.12152 13.1717C3.12455 13.1727 3.12884 13.174 3.13463 13.1754C3.16964 13.1838 3.23225 13.1881 3.31482 13.1735C4.00797 13.0509 4.7509 13.1566 5.41226 13.5263C6.12155 13.9229 6.61501 14.5553 6.83924 15.2707C6.86724 15.36 6.9033 15.4207 6.93033 15.4524C6.93562 15.4586 6.93972 15.4628 6.9426 15.4655C7.45356 15.5801 7.9867 15.6408 8.53553 15.6408C9.08433 15.6408 9.61743 15.5801 10.1284 15.4655C10.1312 15.4628 10.1353 15.4586 10.1406 15.4524C10.1677 15.4207 10.2037 15.36 10.2317 15.2706C10.4559 14.555 10.9494 13.9223 11.6589 13.5257C12.3203 13.1559 13.0634 13.0503 13.7567 13.173C13.8392 13.1876 13.9019 13.1833 13.9369 13.1749C13.9427 13.1735 13.947 13.1722 13.95 13.1712C14.4307 12.6072 14.8177 11.9679 15.0895 11.2757C15.0885 11.2721 15.087 11.2672 15.0846 11.2611C15.068 11.2168 15.0251 11.1478 14.9499 11.0778C14.36 10.5292 13.9857 9.74953 13.9857 8.88119C13.9857 8.01285 14.36 7.23319 14.9498 6.68457C15.0251 6.61461 15.0679 6.54554 15.0846 6.50128C15.0869 6.49514 15.0885 6.49033 15.0895 6.48671C14.8176 5.79425 14.4304 5.15484 13.9496 4.5907C13.9465 4.58968 13.9422 4.5884 13.9364 4.58701C13.9014 4.57862 13.8388 4.57429 13.7563 4.58889C13.0631 4.71144 12.3202 4.6058 11.6589 4.23608C10.9496 3.83955 10.4562 3.20714 10.232 2.49178C10.2039 2.40244 10.1679 2.34173 10.1409 2.31005C10.1356 2.30385 10.1315 2.29967 10.1286 2.29696C9.61759 2.18236 9.08441 2.1216 8.53553 2.1216C7.9867 2.1216 7.45355 2.18236 6.94259 2.29693ZM15.0915 6.47787C15.0915 6.47787 15.0915 6.47818 15.0914 6.47883ZM1.97958 11.2846C1.97957 11.2846 1.97959 11.2843 1.97969 11.2837ZM5.31872 8.88121C5.31872 7.10455 6.75899 5.66428 8.53565 5.66428C10.3123 5.66428 11.7526 7.10455 11.7526 8.88121C11.7526 10.6579 10.3123 12.0981 8.53565 12.0981C6.75899 12.0981 5.31872 10.6579 5.31872 8.88121ZM8.53565 7.21166C7.61358 7.21166 6.8661 7.95914 6.8661 8.88121C6.8661 9.80327 7.61358 10.5507 8.53565 10.5507C9.45771 10.5507 10.2052 9.80327 10.2052 8.88121C10.2052 7.95914 9.45771 7.21166 8.53565 7.21166Z" fill="#727586"/>
</svg>
