<svg width="38" height="39" viewBox="0 0 38 39" fill="none" xmlns="http://www.w3.org/2000/svg">
<path d="M20.0438 20.9651H17.0167V23.9923H20.0438V20.9651Z" fill="#5E2BE8"/>
<path fill-rule="evenodd" clip-rule="evenodd" d="M18.2274 10.9757H8.74258V7.84766H6.92631V10.9765C6.68046 10.9781 6.45746 10.9833 6.26177 10.9993C5.95322 11.0245 5.63351 11.081 5.32227 11.2396C4.8666 11.4718 4.49613 11.8423 4.26395 12.2979C4.10536 12.6092 4.04885 12.9289 4.02364 13.2374C3.99996 13.5272 3.99998 13.8768 4 14.2719V24.6313C3.99998 25.0264 3.99996 25.376 4.02364 25.6657C4.04885 25.9743 4.10536 26.294 4.26395 26.6052C4.49613 27.0609 4.8666 27.4314 5.32227 27.6635C5.63351 27.8221 5.95322 27.8787 6.26177 27.9039C6.5515 27.9275 6.90109 27.9275 7.29609 27.9275H20.6828C21.0778 27.9275 21.4274 27.9275 21.7172 27.9039C22.0257 27.8787 22.3454 27.8221 22.6567 27.6635C23.1123 27.4314 23.4828 27.0609 23.715 26.6052C23.8736 26.294 23.9301 25.9743 23.9553 25.6657C23.979 25.376 23.979 25.0264 23.9789 24.6313V14.2719C23.979 13.8768 23.979 13.5272 23.9553 13.2374C23.9301 12.9289 23.8736 12.6092 23.715 12.2979C23.4828 11.8423 23.1123 11.4718 22.6567 11.2396C22.3454 11.081 22.0257 11.0245 21.7172 10.9993C21.4274 10.9756 21.0778 10.9757 20.6828 10.9757L20.0437 10.9757V7.84766H18.2274V10.9757ZM6.40967 12.8095C6.21345 12.8256 6.15936 12.8515 6.14683 12.8579C6.03292 12.916 5.9403 13.0086 5.88226 13.1225C5.87587 13.135 5.84991 13.1891 5.83387 13.3853C5.81697 13.5922 5.81627 13.8667 5.81627 14.3055V16.1219H22.1627V14.3055C22.1627 13.8667 22.162 13.5922 22.1451 13.3853C22.129 13.1891 22.1031 13.135 22.0967 13.1225C22.0386 13.0086 21.946 12.916 21.8321 12.8579C21.8196 12.8515 21.7655 12.8256 21.5693 12.8095C21.3624 12.7926 21.0879 12.7919 20.6491 12.7919H7.32982C6.891 12.7919 6.61651 12.7926 6.40967 12.8095ZM5.81627 24.5977V17.9381H22.1627V24.5977C22.1627 25.0365 22.162 25.311 22.1451 25.5178C22.129 25.7141 22.1031 25.7681 22.0967 25.7807C22.0386 25.8946 21.946 25.9872 21.8321 26.0452C21.8196 26.0516 21.7655 26.0776 21.5693 26.0936C21.3624 26.1105 21.0879 26.1112 20.6491 26.1112H7.32982C6.891 26.1112 6.61651 26.1105 6.40967 26.0936C6.21345 26.0776 6.15936 26.0516 6.14683 26.0452C6.03292 25.9872 5.9403 25.8946 5.88226 25.7807C5.87587 25.7681 5.84991 25.7141 5.83387 25.5178C5.81697 25.311 5.81627 25.0365 5.81627 24.5977Z" fill="#5E2BE8"/>
<path d="M14.9989 20.9651H11.9718V23.9923H14.9989V20.9651Z" fill="#5E2BE8"/>
<path d="M31.4655 17.9439L31.4655 17.9439L31.485 17.9244L31.378 17.8174L31.485 17.9244C31.6526 17.7567 31.8062 17.6033 31.9448 17.4856C32.0949 17.3581 32.2721 17.2328 32.4973 17.1596C32.8198 17.0548 33.1673 17.0548 33.4899 17.1596L33.5366 17.0158L33.4899 17.1596C33.7151 17.2328 33.8922 17.3581 34.0423 17.4856C34.1809 17.6033 34.3345 17.7567 34.5022 17.9244L34.5022 17.9244L35.146 18.5682L35.146 18.5682C35.3136 18.7358 35.4671 18.8894 35.5848 19.028L35.7001 18.9301L35.5848 19.028C35.7122 19.1782 35.8375 19.3553 35.9107 19.5805C36.0155 19.9031 36.0155 20.2505 35.9107 20.5731C35.8375 20.7983 35.7122 20.9754 35.5848 21.1256L35.7001 21.2235L35.5848 21.1256C35.4671 21.2642 35.3136 21.4177 35.146 21.5854L35.253 21.6924L35.1459 21.5854L35.1265 21.6049L35.1265 21.6049L29.0146 27.7167L22.9471 33.7843H19.2861V30.1233L31.4655 17.9439ZM33.166 18.5147L33.059 18.6217L33.166 18.5147C33.0708 18.4194 32.9164 18.4194 32.8211 18.5147L20.6926 30.6432L20.6483 30.6875V30.7502V32.2707V32.4221H20.7997H22.3202H22.3829L22.4272 32.3777L34.5557 20.2492C34.6509 20.154 34.6509 19.9996 34.5557 19.9043L33.166 18.5147Z" fill="#5E2BE8" stroke="#5E2BE8" stroke-width="0.302711"/>
</svg>
