<svg width="24" height="24" viewBox="0 0 24 24" fill="none" xmlns="http://www.w3.org/2000/svg">
<path fill-rule="evenodd" clip-rule="evenodd" d="M9.9996 2.10156C5.63656 2.10156 2.09961 5.63851 2.09961 10.0016C2.09961 14.3646 5.63656 17.9016 9.9996 17.9016C11.8569 17.9016 13.5645 17.2606 14.9133 16.1879L19.8633 21.1379C20.2148 21.4894 20.7847 21.4894 21.1361 21.1379C21.4876 20.7864 21.4876 20.2166 21.1361 19.8651L16.1861 14.9151C17.2587 13.5663 17.8996 11.8588 17.8996 10.0016C17.8996 5.63851 14.3626 2.10156 9.9996 2.10156ZM3.89961 10.0016C3.89961 6.63263 6.63067 3.90156 9.9996 3.90156C13.3685 3.90156 16.0996 6.63263 16.0996 10.0016C16.0996 13.3705 13.3685 16.1016 9.9996 16.1016C6.63067 16.1016 3.89961 13.3705 3.89961 10.0016Z" fill="#8B8FA4"/>
</svg>
