<svg width="17" height="17" viewBox="0 0 17 17" fill="none" xmlns="http://www.w3.org/2000/svg">
<path fill-rule="evenodd" clip-rule="evenodd" d="M8.08913 0.506196C8.35194 0.305226 8.7168 0.305226 8.97961 0.506196L15.9021 5.79981C16.0834 5.93849 16.1898 6.15376 16.1898 6.38206L16.1898 14.0618C16.1898 14.2689 16.1899 14.4661 16.1763 14.6322C16.1615 14.8133 16.127 15.0211 16.0212 15.2287C15.8728 15.5199 15.6361 15.7566 15.3449 15.9049C15.1373 16.0107 14.9295 16.0453 14.7484 16.0601C14.5823 16.0736 14.3852 16.0736 14.1781 16.0736L9.26755 16.0736V10.0473H7.80161V16.0736L2.8907 16.0736C2.68359 16.0736 2.48644 16.0736 2.32035 16.0601C2.13921 16.0453 1.93145 16.0107 1.72379 15.9049C1.43264 15.7566 1.19592 15.5199 1.04756 15.2287C0.941758 15.0211 0.907238 14.8133 0.892439 14.6322C0.878868 14.466 0.878887 14.2689 0.878908 14.0618L0.878909 6.38206C0.878909 6.15376 0.985287 5.93849 1.16664 5.79981L8.08913 0.506196Z" fill="#3B3D46"/>
</svg>
