<svg width="32" height="31" viewBox="0 0 32 31" fill="none" xmlns="http://www.w3.org/2000/svg">
<path fill-rule="evenodd" clip-rule="evenodd" d="M1.99115 0.0186931C2.2206 -5.42246e-05 2.4929 -2.80114e-05 2.77901 2.43163e-06H12.8973L18.8999 6.30281V19.496C18.9 19.7821 18.9 20.0544 18.8812 20.2838C18.8608 20.5341 18.8131 20.8211 18.667 21.1079C18.462 21.5101 18.135 21.8371 17.7328 22.042C17.446 22.1882 17.159 22.2359 16.9088 22.2563C16.6793 22.2751 16.407 22.275 16.1209 22.275H2.77895C2.49286 22.275 2.22059 22.2751 1.99115 22.2563C1.74094 22.2359 1.45394 22.1882 1.16709 22.042C0.764899 21.8371 0.437904 21.5101 0.232976 21.1079C0.0868197 20.8211 0.0391369 20.5341 0.0186941 20.2838C-5.31767e-05 20.0544 -2.78374e-05 19.7821 2.40437e-06 19.496V2.77902C-2.78374e-05 2.49291 -5.31767e-05 2.22061 0.0186941 1.99115C0.0391369 1.74094 0.0868197 1.45395 0.232976 1.1671C0.437904 0.764902 0.764899 0.437905 1.16709 0.232976C1.45394 0.086819 1.74094 0.0391361 1.99115 0.0186931ZM2.02498 2.13728C2.02498 2.07515 2.07535 2.02478 2.13748 2.02478H10.6874V7.65022H16.8749V20.1373C16.8749 20.1994 16.8246 20.2498 16.7624 20.2498H2.13748C2.07535 20.2498 2.02498 20.1994 2.02498 20.1373V2.13728ZM12.7124 5.62522V2.74197L15.4584 5.62522H12.7124Z" fill="#5E2BE8"/>
<path fill-rule="evenodd" clip-rule="evenodd" d="M29.2729 11.0852C28.9231 10.9716 28.5463 10.9716 28.1965 11.0852C27.947 11.1663 27.7542 11.3042 27.5982 11.4366C27.4552 11.558 27.2984 11.7149 27.1335 11.8797L27.1142 11.899L15 24.0133V27.8536H18.8403L24.8974 21.7965L30.9545 15.7394L30.9738 15.7201C31.1387 15.5552 31.2956 15.3984 31.417 15.2554C31.5494 15.0994 31.6873 14.9066 31.7683 14.6571C31.882 14.3073 31.882 13.9305 31.7683 13.5807C31.6873 13.3312 31.5494 13.1384 31.417 12.9825C31.2956 12.8395 31.1387 12.6826 30.9739 12.5178L30.3358 11.8797C30.171 11.7149 30.0141 11.558 29.8711 11.4366C29.7152 11.3042 29.5224 11.1663 29.2729 11.0852ZM28.6698 12.6768C28.7056 12.641 28.7637 12.641 28.7995 12.6768L30.1767 14.0541C30.2125 14.0899 30.2125 14.1479 30.1767 14.1837L18.1569 26.2036H16.65V24.6967L28.6698 12.6768Z" fill="#5E2BE8" stroke="#5E2BE8" stroke-width="0.3"/>
<path d="M17.291 29.9638C17.291 29.5588 17.536 29.2305 17.8382 29.2305H28.4772C28.7794 29.2305 29.0243 29.5588 29.0243 29.9638C29.0243 30.3688 28.7794 30.6971 28.4772 30.6971H17.8382C17.536 30.6971 17.291 30.3688 17.291 29.9638Z" fill="#5E2BE8"/>
</svg>
