<svg width="17" height="16" viewBox="0 0 17 16" fill="none" xmlns="http://www.w3.org/2000/svg">
<path fill-rule="evenodd" clip-rule="evenodd" d="M8.53484 1.70031C5.00401 1.70031 2.14172 4.56261 2.14172 8.09344C2.14172 11.6243 5.00401 14.4866 8.53484 14.4866C9.64347 14.4866 10.6842 14.205 11.5915 13.71C11.7577 13.6193 11.9526 13.5965 12.1354 13.6463L13.8574 14.116C14.2318 14.2181 14.4638 14.2806 14.6341 14.3107C14.6946 14.3214 14.733 14.325 14.7545 14.3262C14.7593 14.3223 14.7637 14.3179 14.7676 14.3131C14.7664 14.2916 14.7628 14.2533 14.7521 14.1927C14.722 14.0224 14.6595 13.7904 14.5574 13.416L14.0877 11.694C14.0379 11.5113 14.0607 11.3163 14.1514 11.1501C14.6464 10.2428 14.928 9.20208 14.928 8.09344C14.928 4.56261 12.0657 1.70031 8.53484 1.70031ZM0.675781 8.09344C0.675781 3.753 4.1944 0.234375 8.53484 0.234375C12.8753 0.234375 16.3939 3.753 16.3939 8.09344C16.3939 9.34628 16.1002 10.5324 15.5775 11.5849L15.9801 13.0611C16.0712 13.3951 16.1525 13.6931 16.1957 13.9378C16.2395 14.1859 16.2693 14.5003 16.1494 14.8144C15.9923 15.2259 15.6673 15.5509 15.2558 15.708C14.9417 15.8279 14.6273 15.7981 14.3792 15.7543C14.1345 15.7111 13.8365 15.6298 13.5025 15.5387L12.0263 15.1361C10.9738 15.6588 9.78768 15.9525 8.53484 15.9525C4.1944 15.9525 0.675781 12.4339 0.675781 8.09344Z" fill="#727586"/>
</svg>
