<svg width="16" height="21" viewBox="0 0 16 21" fill="none" xmlns="http://www.w3.org/2000/svg">
<path fill-rule="evenodd" clip-rule="evenodd" d="M3.36628 0.601564C3.37735 0.601564 3.38846 0.601565 3.39961 0.601565L12.6329 0.601564C13.0245 0.601545 13.3709 0.601528 13.6581 0.62499C13.9639 0.649973 14.2807 0.705983 14.5892 0.863149C15.0408 1.09325 15.4079 1.4604 15.638 1.91199C15.7952 2.22044 15.8512 2.53729 15.8762 2.84308C15.8996 3.13023 15.8996 3.47672 15.8996 3.86823L15.8996 19.5016C15.8996 19.8267 15.7243 20.1265 15.441 20.2859C15.1577 20.4453 14.8104 20.4396 14.5325 20.2709L7.99961 16.3045L1.46669 20.2709C1.18881 20.4396 0.841544 20.4453 0.558234 20.2859C0.274925 20.1265 0.0996115 19.8267 0.0996115 19.5016V3.90156C0.0996115 3.89042 0.099611 3.87931 0.0996104 3.86823C0.0995918 3.47672 0.0995753 3.13023 0.123037 2.84308C0.14802 2.53729 0.20403 2.22044 0.361196 1.91199C0.591292 1.4604 0.958445 1.09325 1.41003 0.863149C1.71849 0.705983 2.03534 0.649973 2.34113 0.62499C2.62828 0.601528 2.97477 0.601545 3.36628 0.601564ZM2.4877 2.41901C2.29323 2.4349 2.23963 2.46064 2.22722 2.46696C2.11432 2.52448 2.02253 2.61627 1.96501 2.72917C1.95868 2.74158 1.93295 2.79519 1.91706 2.98966C1.90031 3.19463 1.89961 3.46667 1.89961 3.90156V17.9022L7.53253 14.4823C7.81954 14.308 8.17969 14.308 8.46669 14.4823L14.0996 17.9022V3.90156C14.0996 3.46667 14.0989 3.19463 14.0822 2.98966C14.0663 2.79518 14.0405 2.74158 14.0342 2.72917C13.9767 2.61627 13.8849 2.52448 13.772 2.46696C13.7596 2.46064 13.706 2.4349 13.5115 2.41901C13.3065 2.40226 13.0345 2.40156 12.5996 2.40156H3.39961C2.96472 2.40156 2.69268 2.40226 2.4877 2.41901Z" fill="white"/>
</svg>
