<svg width="481" height="408" viewBox="0 0 481 408" fill="none" xmlns="http://www.w3.org/2000/svg">
<path d="M22.7654 35.5232V385.291" stroke="#EFECF8" stroke-width="1.27519"/>
<rect width="45.2436" height="45.2436" rx="22.6218" fill="#F2F2F7"/>
<path d="M25.2739 31.6218H22.6256C22.4313 31.6218 22.3098 31.5003 22.3098 31.306V18.1615L19.054 19.4493C18.884 19.5222 18.7382 19.4736 18.641 19.2792L18.1794 18.4045C18.1065 18.2344 18.1308 18.0887 18.2765 17.9672L22.9901 13.9339C23.1116 13.8125 23.233 13.7882 23.3788 13.7882H25.2739C25.4683 13.7882 25.5898 13.9097 25.5898 14.104V31.306C25.5898 31.5003 25.4683 31.6218 25.2739 31.6218Z" fill="#04CA95"/>
<path d="M90.0256 22.905H97.9188C98.1247 22.905 98.2162 23.0423 98.2162 23.2025V25.0556C98.2162 25.2387 98.1247 25.3302 97.9188 25.3302H79.1582C78.9752 25.3302 78.8837 25.2387 78.8837 25.0556V23.2025C78.8837 23.0423 78.9752 22.905 79.1582 22.905H87.0742V21.1205H82.0181C81.8121 21.1205 81.7435 21.0061 81.7435 20.846V14.3255C81.7435 14.1425 81.8121 14.0281 82.0409 14.0281H94.9674C95.1504 14.0281 95.2419 14.1425 95.2419 14.3255V16.1329C95.2419 16.316 95.1504 16.4304 94.9674 16.4304H84.6262V18.7182H95.1733C95.3792 18.7182 95.4707 18.8326 95.4707 19.0157V20.846C95.4707 21.0061 95.3792 21.1205 95.1733 21.1205H90.0256V22.905ZM88.5385 26.1081C93.0913 26.1081 95.3335 27.5952 95.3335 30.0661C95.3335 32.4912 93.0913 34.047 88.5385 34.047C83.9856 34.047 81.7664 32.5141 81.7664 30.0661C81.7664 27.5952 83.9856 26.1081 88.5385 26.1081ZM88.5385 31.6447C91.3983 31.6447 92.4279 31.027 92.4279 30.0661C92.4279 29.1052 91.3983 28.4874 88.5385 28.4874C85.6786 28.4874 84.6491 29.1052 84.6491 30.0661C84.6491 31.027 85.6786 31.6447 88.5385 31.6447ZM115.668 20.5028H118.574C118.803 20.5028 118.894 20.6172 118.894 20.8231V22.8135C118.894 22.9966 118.803 23.1109 118.574 23.1109H115.668V33.2691C115.668 33.4521 115.577 33.5436 115.348 33.5436H113.014C112.831 33.5436 112.74 33.4521 112.74 33.2691V13.7307C112.74 13.5477 112.831 13.4333 113.014 13.4333H115.348C115.577 13.4333 115.668 13.5477 115.668 13.7307V20.5028ZM105.121 15.1492C108.576 15.1492 110.932 17.5514 110.932 22.0814C110.932 26.6343 108.576 29.0365 105.121 29.0365C101.644 29.0365 99.2872 26.6343 99.2872 22.0814C99.2872 17.5514 101.644 15.1492 105.121 15.1492ZM105.121 26.4284C106.929 26.4284 108.027 24.987 108.027 22.0814C108.027 19.1987 106.929 17.7345 105.121 17.7345C103.314 17.7345 102.193 19.1987 102.193 22.0814C102.193 24.987 103.314 26.4284 105.121 26.4284ZM136.529 33.5436H134.219C134.013 33.5436 133.921 33.4521 133.921 33.2691V13.7307C133.921 13.5477 134.013 13.4333 134.219 13.4333H136.529C136.758 13.4333 136.85 13.5477 136.85 13.7307V33.2691C136.85 33.4521 136.758 33.5436 136.529 33.5436ZM124.724 28.9221H120.766C120.56 28.9221 120.491 28.8077 120.491 28.6247V21.1891C120.491 21.0061 120.56 20.8917 120.766 20.8917H127.79V17.6658H120.72C120.537 17.6658 120.446 17.5743 120.446 17.3684V15.5381C120.446 15.3779 120.537 15.2636 120.72 15.2636H130.398C130.581 15.2636 130.672 15.3779 130.672 15.5381V22.8822C130.672 23.0652 130.558 23.1796 130.375 23.1796H123.374V26.497H125.159C126.92 26.497 129.46 26.314 131.473 25.8564C131.656 25.8335 131.794 25.9022 131.839 26.1309L132.137 27.9384C132.16 28.0985 132.114 28.1671 131.908 28.2129C129.872 28.6476 127.469 28.9221 124.724 28.9221ZM155.623 29.0365H163.539C163.745 29.0365 163.836 29.1509 163.836 29.334V31.3473C163.836 31.5074 163.745 31.6218 163.539 31.6218H144.778C144.595 31.6218 144.504 31.5074 144.504 31.3473V29.334C144.504 29.1509 144.595 29.0365 144.778 29.0365H152.694V25.17H147.501C147.318 25.17 147.226 25.0556 147.226 24.8726V15.3551C147.226 15.172 147.318 15.0576 147.501 15.0576H160.816C161.022 15.0576 161.113 15.172 161.113 15.3551V24.8726C161.113 25.0556 161.022 25.17 160.816 25.17H155.623V29.0365ZM158.185 17.6201H150.155V22.5847H158.185V17.6201ZM179.641 13.4333H181.952C182.18 13.4333 182.272 13.5477 182.272 13.7307V23.8431C182.272 24.0261 182.18 24.1405 181.952 24.1405H179.641C179.435 24.1405 179.344 24.0261 179.344 23.8431V13.7307C179.344 13.5477 179.435 13.4333 179.641 13.4333ZM171.382 20.9375C170.352 22.2644 168.705 23.5228 166.76 24.4837C166.577 24.5752 166.371 24.5294 166.28 24.3922L165.136 22.6534C165.021 22.4932 165.021 22.2873 165.204 22.1958C167.858 20.846 169.872 19.2673 169.872 17.3455V16.9795H166.028C165.822 16.9795 165.731 16.8651 165.731 16.682V14.7831C165.731 14.6001 165.822 14.4857 166.028 14.4857H176.529C176.758 14.4857 176.85 14.6001 176.85 14.7831V16.682C176.85 16.8651 176.758 16.9795 176.529 16.9795H172.8V17.3455C172.8 19.1758 174.379 20.457 177.17 21.8297C177.353 21.9213 177.353 22.0814 177.262 22.2644L176.232 24.0261C176.141 24.1862 175.912 24.1862 175.752 24.0947C174.059 23.3397 172.48 22.1958 171.382 20.9375ZM179.641 25.1472H181.975C182.18 25.1472 182.272 25.2615 182.272 25.4217V33.2691C182.272 33.4521 182.18 33.5436 181.975 33.5436H169.368C169.162 33.5436 169.071 33.4521 169.071 33.2691V25.4217C169.071 25.2615 169.162 25.1472 169.368 25.1472H171.679C171.885 25.1472 171.977 25.2615 171.977 25.4217V27.069H179.344V25.4217C179.344 25.2615 179.435 25.1472 179.641 25.1472ZM171.977 29.4255V31.1643H179.344V29.4255H171.977ZM203.699 16.7278H192.831C192.648 16.7278 192.557 16.6134 192.557 16.4532V14.5314C192.557 14.3484 192.648 14.2569 192.831 14.2569H206.33C206.536 14.2569 206.604 14.3484 206.604 14.5314C206.604 16.5676 206.513 19.3588 206.147 21.1434C206.101 21.3722 205.964 21.4179 205.758 21.395L203.607 21.0747C203.424 21.0519 203.356 20.846 203.378 20.6858C203.562 19.6105 203.676 17.9404 203.699 16.7278ZM199.947 22.15H208.961C209.167 22.15 209.258 22.2873 209.258 22.4703V24.3693C209.258 24.5523 209.167 24.6667 208.961 24.6667H190.2C190.017 24.6667 189.926 24.5523 189.926 24.3693V22.4703C189.926 22.2873 190.017 22.15 190.2 22.15H197.018V18.8784C197.018 18.7182 197.11 18.6038 197.293 18.6038H199.626C199.855 18.6038 199.947 18.7182 199.947 18.8784V22.15ZM199.558 25.9708C204.271 25.9708 206.398 27.5494 206.398 29.9974C206.398 32.4226 204.271 34.047 199.558 34.047C194.868 34.047 192.74 32.4226 192.74 29.9974C192.74 27.5494 194.868 25.9708 199.558 25.9708ZM199.558 31.6447C202.509 31.6447 203.493 30.9126 203.493 29.9974C203.493 29.0823 202.509 28.3502 199.558 28.3502C196.629 28.3502 195.623 29.0823 195.623 29.9974C195.623 30.9126 196.629 31.6447 199.558 31.6447ZM223.965 17.8488H212.915C212.709 17.8488 212.617 17.7345 212.617 17.5743V15.561C212.617 15.4008 212.709 15.2864 212.915 15.2864H226.573C226.756 15.2864 226.848 15.4008 226.848 15.561V18.009C226.848 20.8688 226.482 24.049 225.955 26.314C225.91 26.5199 225.75 26.5885 225.567 26.5428L223.462 26.2453C223.279 26.2225 223.21 25.9937 223.233 25.8564C223.622 23.8202 223.965 20.7544 223.965 18.581V17.8488ZM219.916 28.8077H229.158C229.364 28.8077 229.456 28.9221 229.456 29.128V31.1185C229.456 31.3015 229.364 31.393 229.158 31.393H210.398C210.215 31.393 210.123 31.3015 210.123 31.1185V29.128C210.123 28.9221 210.215 28.8077 210.398 28.8077H217.01V22.6534C217.01 22.4932 217.101 22.3788 217.307 22.3788H219.618C219.824 22.3788 219.916 22.4932 219.916 22.6534V28.8077ZM247.817 25.7191C245.3 26.1996 242.509 26.4055 238.963 26.4055H235.302C235.096 26.4055 235.005 26.2911 235.005 26.1081V24.3464C235.005 24.1862 235.096 24.0719 235.302 24.0719H238.391C239.009 24.0719 239.604 24.0719 240.198 24.049V22.7678C237.865 22.4017 236.606 21.1434 236.606 19.4961C236.606 18.6954 236.927 18.1005 237.293 17.7116H235.737C235.531 17.7116 235.462 17.6201 235.462 17.437V15.5839C235.462 15.4237 235.531 15.3093 235.737 15.3093H240.221V13.5477C240.221 13.3646 240.313 13.2502 240.496 13.2502H242.807C243.012 13.2502 243.104 13.3646 243.104 13.5477V15.3093H247.428C247.611 15.3093 247.703 15.4237 247.703 15.5839V17.437C247.703 17.6201 247.611 17.7116 247.428 17.7116H246.032C246.399 18.1005 246.719 18.6954 246.719 19.4961C246.719 21.1434 245.392 22.4017 243.127 22.7678V23.9346C244.728 23.8202 246.193 23.66 247.565 23.4313C247.771 23.3855 247.886 23.5228 247.908 23.6829L248.114 25.3988C248.137 25.5818 248.023 25.6734 247.817 25.7191ZM251.935 18.9241H254.841C255.07 18.9241 255.161 19.0385 255.161 19.2444V21.1663C255.161 21.3493 255.07 21.4637 254.841 21.4637H251.935V26.0394C251.935 26.2225 251.844 26.3597 251.615 26.3597H249.281C249.098 26.3597 249.007 26.2225 249.007 26.0394V13.7307C249.007 13.5477 249.098 13.4333 249.281 13.4333H251.615C251.844 13.4333 251.935 13.5477 251.935 13.7307V18.9241ZM239.352 19.2673C239.352 20.0452 240.015 20.6629 241.663 20.6629C243.195 20.6629 243.996 20.0452 243.996 19.2673C243.996 18.5123 243.173 17.8946 241.663 17.8946C240.061 17.8946 239.352 18.5123 239.352 19.2673ZM238.254 27.3664H251.638C251.844 27.3664 251.935 27.4808 251.935 27.6409V33.5665C251.935 33.7495 251.844 33.8639 251.638 33.8639H249.304C249.098 33.8639 249.007 33.7495 249.007 33.5665V29.6771H238.254C238.048 29.6771 237.956 29.5627 237.956 29.3797V27.6409C237.956 27.4808 238.048 27.3664 238.254 27.3664ZM272.796 28.0985H270.485C270.28 28.0985 270.188 28.007 270.188 27.824V13.7307C270.188 13.5477 270.28 13.4333 270.485 13.4333H272.796C273.025 13.4333 273.117 13.5477 273.117 13.7307V27.824C273.117 28.007 273.025 28.0985 272.796 28.0985ZM261.929 24.5523C258.657 24.5523 256.346 22.4246 256.346 19.4046C256.346 16.4075 258.657 14.2798 261.929 14.2798C265.201 14.2798 267.511 16.4075 267.511 19.4046C267.511 22.4246 265.201 24.5523 261.929 24.5523ZM261.929 22.0814C263.53 22.0814 264.651 21.0061 264.651 19.4046C264.651 17.8031 263.53 16.7278 261.929 16.7278C260.327 16.7278 259.206 17.8031 259.206 19.4046C259.206 21.0061 260.327 22.0814 261.929 22.0814ZM273.254 33.3377H260.099C259.893 33.3377 259.801 33.2233 259.801 33.0403V26.5199C259.801 26.3597 259.893 26.2453 260.099 26.2453H262.432C262.638 26.2453 262.73 26.3597 262.73 26.5199V30.7524H273.254C273.46 30.7524 273.551 30.844 273.551 31.0499V33.0403C273.551 33.2233 273.46 33.3377 273.254 33.3377ZM292.33 21.1891H295.236C295.465 21.1891 295.556 21.3035 295.556 21.4866V23.4999C295.556 23.66 295.465 23.7744 295.236 23.7744H292.33V33.2691C292.33 33.4521 292.239 33.5436 292.01 33.5436H289.676C289.493 33.5436 289.402 33.4521 289.402 33.2691V13.7307C289.402 13.5477 289.493 13.4333 289.676 13.4333H292.01C292.239 13.4333 292.33 13.5477 292.33 13.7307V21.1891ZM283.385 16.682H287.663C287.869 16.682 287.961 16.7964 287.961 16.9795V18.9241C287.961 19.1072 287.869 19.2216 287.663 19.2216H276.155C275.949 19.2216 275.881 19.1072 275.881 18.9241V16.9795C275.881 16.7964 275.949 16.682 276.155 16.682H280.456V14.3255C280.456 14.1654 280.548 14.051 280.777 14.051H283.087C283.293 14.051 283.385 14.1654 283.385 14.3255V16.682ZM281.943 20.3884C285.169 20.3884 287.228 22.2644 287.228 25.3073C287.228 28.3273 285.169 30.1805 281.943 30.1805C278.74 30.1805 276.704 28.3273 276.704 25.3073C276.704 22.2644 278.74 20.3884 281.943 20.3884ZM281.966 27.7782C283.476 27.7782 284.369 26.7258 284.369 25.3073C284.369 23.8431 283.476 22.7906 281.966 22.7906C280.456 22.7906 279.564 23.8431 279.564 25.3073C279.564 26.7258 280.456 27.7782 281.966 27.7782ZM313.214 33.5436H310.881C310.675 33.5436 310.583 33.4521 310.583 33.2691V13.7307C310.583 13.5477 310.675 13.4333 310.881 13.4333H313.214C313.443 13.4333 313.535 13.5477 313.535 13.7307V33.2691C313.535 33.4521 313.443 33.5436 313.214 33.5436ZM298.595 29.2196C298.389 29.3111 298.275 29.2882 298.16 29.128L297.085 27.2291C296.97 27.0461 297.016 26.9088 297.199 26.8173C302.141 24.415 304.177 22.0814 304.177 18.6267V18.1691H297.771C297.588 18.1691 297.497 18.0776 297.497 17.8946V15.8813C297.497 15.6982 297.588 15.5839 297.771 15.5839H306.831C307.06 15.5839 307.129 15.6982 307.129 15.8813V18.6267C307.129 23.0423 304.383 26.3597 298.595 29.2196Z" fill="white"/>
<rect x="0.404942" y="121.249" width="44.4337" height="44.4337" rx="22.2169" fill="#13B482"/>
<rect x="0.404942" y="121.249" width="44.4337" height="44.4337" rx="22.2169" stroke="#EFECF8" stroke-width="0.809884"/>
<path d="M28.5233 152.466H16.8124C16.618 152.466 16.4965 152.345 16.4965 152.15V151.348C16.4965 151.203 16.5451 151.081 16.6423 150.96L21.04 146.003C24.1499 142.504 24.9031 141.29 24.9031 139.71C24.9031 138.35 23.8827 137.499 22.3034 137.499C20.9185 137.499 19.8495 138.301 19.2906 139.832C19.2177 140.026 19.0963 140.099 18.9019 140.051L16.4236 139.37C16.2293 139.322 16.1321 139.2 16.205 138.981C17.1282 136.066 19.4121 134.292 22.4735 134.292C25.9479 134.292 28.3047 136.333 28.3047 139.37C28.3047 141.776 27.43 143.622 23.421 147.874L22.0119 149.38H28.5233C28.7177 149.38 28.8392 149.502 28.8392 149.696V152.15C28.8392 152.345 28.7177 152.466 28.5233 152.466Z" fill="#EFECF8"/>
<path d="M90.0256 143.749H97.9188C98.1247 143.749 98.2162 143.887 98.2162 144.047V145.9C98.2162 146.083 98.1247 146.174 97.9188 146.174H79.1582C78.9752 146.174 78.8837 146.083 78.8837 145.9V144.047C78.8837 143.887 78.9752 143.749 79.1582 143.749H87.0742V141.965H82.0181C81.8121 141.965 81.7435 141.85 81.7435 141.69V135.17C81.7435 134.987 81.8121 134.872 82.0409 134.872H94.9674C95.1504 134.872 95.2419 134.987 95.2419 135.17V136.977C95.2419 137.16 95.1504 137.275 94.9674 137.275H84.6262V139.562H95.1733C95.3792 139.562 95.4707 139.677 95.4707 139.86V141.69C95.4707 141.85 95.3792 141.965 95.1733 141.965H90.0256V143.749ZM88.5385 146.952C93.0913 146.952 95.3335 148.439 95.3335 150.91C95.3335 153.335 93.0913 154.891 88.5385 154.891C83.9856 154.891 81.7664 153.358 81.7664 150.91C81.7664 148.439 83.9856 146.952 88.5385 146.952ZM88.5385 152.489C91.3983 152.489 92.4279 151.871 92.4279 150.91C92.4279 149.949 91.3983 149.332 88.5385 149.332C85.6786 149.332 84.6491 149.949 84.6491 150.91C84.6491 151.871 85.6786 152.489 88.5385 152.489ZM115.668 141.347H118.574C118.803 141.347 118.894 141.461 118.894 141.667V143.658C118.894 143.841 118.803 143.955 118.574 143.955H115.668V154.113C115.668 154.296 115.577 154.388 115.348 154.388H113.014C112.831 154.388 112.74 154.296 112.74 154.113V134.575C112.74 134.392 112.831 134.277 113.014 134.277H115.348C115.577 134.277 115.668 134.392 115.668 134.575V141.347ZM105.121 135.993C108.576 135.993 110.932 138.396 110.932 142.926C110.932 147.479 108.576 149.881 105.121 149.881C101.644 149.881 99.2872 147.479 99.2872 142.926C99.2872 138.396 101.644 135.993 105.121 135.993ZM105.121 147.273C106.929 147.273 108.027 145.831 108.027 142.926C108.027 140.043 106.929 138.579 105.121 138.579C103.314 138.579 102.193 140.043 102.193 142.926C102.193 145.831 103.314 147.273 105.121 147.273ZM136.529 154.388H134.219C134.013 154.388 133.921 154.296 133.921 154.113V134.575C133.921 134.392 134.013 134.277 134.219 134.277H136.529C136.758 134.277 136.85 134.392 136.85 134.575V154.113C136.85 154.296 136.758 154.388 136.529 154.388ZM124.724 149.766H120.766C120.56 149.766 120.491 149.652 120.491 149.469V142.033C120.491 141.85 120.56 141.736 120.766 141.736H127.79V138.51H120.72C120.537 138.51 120.446 138.419 120.446 138.213V136.382C120.446 136.222 120.537 136.108 120.72 136.108H130.398C130.581 136.108 130.672 136.222 130.672 136.382V143.726C130.672 143.909 130.558 144.024 130.375 144.024H123.374V147.341H125.159C126.92 147.341 129.46 147.158 131.473 146.701C131.656 146.678 131.794 146.746 131.839 146.975L132.137 148.783C132.16 148.943 132.114 149.011 131.908 149.057C129.872 149.492 127.469 149.766 124.724 149.766ZM159.443 134.277H161.754C161.983 134.277 162.074 134.392 162.074 134.575V154.113C162.074 154.296 161.983 154.388 161.754 154.388H159.443C159.237 154.388 159.146 154.296 159.146 154.113V134.575C159.146 134.392 159.237 134.277 159.443 134.277ZM157.293 147.639C157.476 147.776 157.453 147.959 157.316 148.096L155.943 149.698C155.806 149.835 155.645 149.835 155.462 149.698C153.541 148.142 152.008 146.426 151.23 144.87C150.383 146.563 148.782 148.485 146.791 150.018C146.608 150.155 146.425 150.155 146.311 150.018L144.915 148.417C144.778 148.302 144.778 148.073 144.938 147.959C147.684 145.763 149.697 143.017 149.697 139.311V138.968H145.785C145.579 138.968 145.487 138.853 145.487 138.67V136.657C145.487 136.474 145.579 136.359 145.785 136.359H156.263C156.492 136.359 156.583 136.474 156.583 136.657V138.67C156.583 138.853 156.492 138.968 156.263 138.968H152.603V139.311C152.603 142.903 154.822 145.648 157.293 147.639ZM175.019 146.106H179.344V134.575C179.344 134.392 179.435 134.277 179.641 134.277H181.952C182.18 134.277 182.272 134.392 182.272 134.575V149.652C182.272 149.835 182.18 149.949 181.952 149.949H179.641C179.435 149.949 179.344 149.835 179.344 149.652V148.394H175.019C174.791 148.394 174.722 148.302 174.722 148.096V146.403C174.722 146.197 174.791 146.106 175.019 146.106ZM171.565 142.079C167.996 142.079 166.165 140.592 166.165 138.464C166.165 136.314 167.996 134.827 171.565 134.827C175.157 134.827 176.964 136.314 176.964 138.464C176.964 140.592 175.157 142.079 171.565 142.079ZM171.565 137.069C169.872 137.069 169.025 137.641 169.025 138.464C169.025 139.265 169.872 139.837 171.565 139.837C173.258 139.837 174.127 139.265 174.127 138.464C174.127 137.641 173.258 137.069 171.565 137.069ZM169.872 147.73V145.328H169.368H165.159C164.953 145.328 164.861 145.214 164.861 145.053V143.177C164.861 142.994 164.953 142.88 165.159 142.88H168.796C172.411 142.88 175.271 142.72 177.856 142.262C178.062 142.216 178.177 142.331 178.2 142.514L178.451 144.298C178.474 144.481 178.36 144.55 178.154 144.596C176.415 144.939 174.676 145.145 172.754 145.259V147.73C172.754 147.89 172.663 148.005 172.48 148.005H170.192C169.986 148.005 169.872 147.89 169.872 147.73ZM171.336 151.711H182.501C182.73 151.711 182.821 151.825 182.821 152.031V154.022C182.821 154.205 182.73 154.319 182.501 154.319H168.705C168.499 154.319 168.408 154.205 168.408 154.022V149.149C168.408 148.966 168.499 148.874 168.705 148.874H170.924C171.13 148.874 171.336 148.966 171.336 149.149V151.711ZM201.486 142.033H204.391C204.62 142.033 204.712 142.148 204.712 142.331V144.344C204.712 144.504 204.62 144.619 204.391 144.619H201.486V154.113C201.486 154.296 201.394 154.388 201.166 154.388H198.832C198.649 154.388 198.557 154.296 198.557 154.113V134.575C198.557 134.392 198.649 134.277 198.832 134.277H201.166C201.394 134.277 201.486 134.392 201.486 134.575V142.033ZM192.54 137.526H196.819C197.024 137.526 197.116 137.641 197.116 137.824V139.768C197.116 139.951 197.024 140.066 196.819 140.066H185.311C185.105 140.066 185.036 139.951 185.036 139.768V137.824C185.036 137.641 185.105 137.526 185.311 137.526H189.612V135.17C189.612 135.01 189.703 134.895 189.932 134.895H192.243C192.449 134.895 192.54 135.01 192.54 135.17V137.526ZM191.099 141.233C194.325 141.233 196.384 143.109 196.384 146.152C196.384 149.172 194.325 151.025 191.099 151.025C187.896 151.025 185.86 149.172 185.86 146.152C185.86 143.109 187.896 141.233 191.099 141.233ZM191.122 148.622C192.632 148.622 193.524 147.57 193.524 146.152C193.524 144.687 192.632 143.635 191.122 143.635C189.612 143.635 188.719 144.687 188.719 146.152C188.719 147.57 189.612 148.622 191.122 148.622ZM222.37 154.388H220.036C219.83 154.388 219.739 154.296 219.739 154.113V134.575C219.739 134.392 219.83 134.277 220.036 134.277H222.37C222.599 134.277 222.69 134.392 222.69 134.575V154.113C222.69 154.296 222.599 154.388 222.37 154.388ZM207.75 150.064C207.544 150.155 207.43 150.132 207.316 149.972L206.24 148.073C206.126 147.89 206.172 147.753 206.355 147.662C211.296 145.259 213.333 142.926 213.333 139.471V139.013H206.927C206.744 139.013 206.652 138.922 206.652 138.739V136.726C206.652 136.542 206.744 136.428 206.927 136.428H215.987C216.215 136.428 216.284 136.542 216.284 136.726V139.471C216.284 143.887 213.539 147.204 207.75 150.064Z" fill="#EFECF8"/>
<rect x="0.404942" y="242.094" width="44.4337" height="44.4337" rx="22.2169" fill="#13B482"/>
<rect x="0.404942" y="242.094" width="44.4337" height="44.4337" rx="22.2169" stroke="#EFECF8" stroke-width="0.809884"/>
<path d="M22.4498 273.651C19.2669 273.651 16.9587 271.853 16.1084 268.937C16.0598 268.719 16.157 268.597 16.3513 268.548L18.8053 267.892C18.9996 267.844 19.1211 267.917 19.194 268.111C19.7042 269.496 20.7247 270.444 22.4498 270.444C24.3206 270.444 25.5111 269.423 25.5111 267.868C25.5111 266.313 24.2234 265.463 22.2554 265.463H21.5022C21.3078 265.463 21.1863 265.341 21.1863 265.147V262.985C21.1863 262.79 21.3078 262.669 21.5022 262.669H22.2554C23.9075 262.669 25.0495 261.818 25.0495 260.579C25.0495 259.291 23.9318 258.344 22.3769 258.344C20.8462 258.344 19.85 259.291 19.3398 260.676C19.2669 260.871 19.1454 260.944 18.9511 260.895L16.4971 260.239C16.3027 260.19 16.2055 260.069 16.2541 259.85C17.1045 256.935 19.3884 255.137 22.4498 255.137C25.8999 255.137 28.451 257.178 28.451 259.972C28.451 261.721 27.4063 263.179 25.6569 263.981C27.6735 264.661 28.9126 266.167 28.9126 268.33C28.9126 271.513 26.2886 273.651 22.4498 273.651Z" fill="#EFECF8"/>
<path d="M93.8235 255.122H96.1342C96.363 255.122 96.4545 255.236 96.4545 255.419V274.958C96.4545 275.141 96.363 275.232 96.1342 275.232H93.8235C93.6176 275.232 93.526 275.141 93.526 274.958V255.419C93.526 255.236 93.6176 255.122 93.8235 255.122ZM91.6729 268.483C91.8559 268.62 91.833 268.803 91.6957 268.941L90.323 270.542C90.1857 270.679 90.0256 270.679 89.8426 270.542C87.9208 268.986 86.3879 267.271 85.61 265.715C84.7635 267.408 83.162 269.33 81.1715 270.863C80.9885 271 80.8055 271 80.6911 270.863L79.2955 269.261C79.1582 269.147 79.1582 268.918 79.3184 268.803C82.0638 266.607 84.0771 263.862 84.0771 260.155V259.812H80.1649C79.959 259.812 79.8675 259.698 79.8675 259.515V257.501C79.8675 257.318 79.959 257.204 80.1649 257.204H90.6433C90.8721 257.204 90.9636 257.318 90.9636 257.501V259.515C90.9636 259.698 90.8721 259.812 90.6433 259.812H86.9827V260.155C86.9827 263.747 89.202 266.493 91.6729 268.483ZM109.4 266.95H113.724V255.419C113.724 255.236 113.815 255.122 114.021 255.122H116.332C116.561 255.122 116.652 255.236 116.652 255.419V270.496C116.652 270.679 116.561 270.794 116.332 270.794H114.021C113.815 270.794 113.724 270.679 113.724 270.496V269.238H109.4C109.171 269.238 109.102 269.147 109.102 268.941V267.248C109.102 267.042 109.171 266.95 109.4 266.95ZM105.945 262.924C102.376 262.924 100.546 261.436 100.546 259.309C100.546 257.158 102.376 255.671 105.945 255.671C109.537 255.671 111.344 257.158 111.344 259.309C111.344 261.436 109.537 262.924 105.945 262.924ZM105.945 257.913C104.252 257.913 103.405 258.485 103.405 259.309C103.405 260.11 104.252 260.682 105.945 260.682C107.638 260.682 108.507 260.11 108.507 259.309C108.507 258.485 107.638 257.913 105.945 257.913ZM104.252 268.575V266.172H103.749H99.5388C99.3329 266.172 99.2414 266.058 99.2414 265.898V264.022C99.2414 263.839 99.3329 263.724 99.5388 263.724H103.177C106.791 263.724 109.651 263.564 112.237 263.107C112.442 263.061 112.557 263.175 112.58 263.358L112.831 265.143C112.854 265.326 112.74 265.395 112.534 265.44C110.795 265.783 109.056 265.989 107.135 266.104V268.575C107.135 268.735 107.043 268.849 106.86 268.849H104.572C104.366 268.849 104.252 268.735 104.252 268.575ZM105.716 272.556H116.881C117.11 272.556 117.201 272.67 117.201 272.876V274.866C117.201 275.049 117.11 275.164 116.881 275.164H103.085C102.879 275.164 102.788 275.049 102.788 274.866V269.993C102.788 269.81 102.879 269.719 103.085 269.719H105.304C105.51 269.719 105.716 269.81 105.716 269.993V272.556ZM135.15 261.597H138.948V260.178H136.02C135.814 260.178 135.722 260.064 135.722 259.858V258.05C135.722 257.845 135.814 257.73 136.02 257.73H138.948V255.419C138.948 255.236 139.04 255.122 139.246 255.122H141.556C141.785 255.122 141.877 255.236 141.877 255.419V264.914C141.877 265.097 141.785 265.211 141.556 265.211H139.246C139.04 265.211 138.948 265.097 138.948 264.914V264.045H135.15C134.922 264.045 134.853 263.93 134.853 263.724V261.917C134.853 261.711 134.922 261.597 135.15 261.597ZM134.967 256.472V258.645C134.967 261.894 131.558 264.296 126.022 265.6C125.816 265.646 125.656 265.623 125.587 265.44L124.969 263.587C124.901 263.381 124.992 263.221 125.175 263.175C129.614 262.123 132.016 260.682 132.016 258.714V258.645H125.976C125.77 258.645 125.679 258.531 125.679 258.348V256.472C125.679 256.289 125.77 256.174 125.976 256.174H134.67C134.899 256.174 134.967 256.289 134.967 256.472ZM131.581 272.967H142.106C142.311 272.967 142.426 273.059 142.426 273.265V275.026C142.426 275.209 142.311 275.301 142.106 275.301H128.95C128.767 275.301 128.676 275.209 128.676 275.026V269.833C128.676 269.673 128.767 269.536 128.95 269.536H138.971V268.392H128.905C128.722 268.392 128.63 268.277 128.63 268.094V266.378C128.63 266.195 128.722 266.081 128.905 266.081H141.579C141.785 266.081 141.877 266.195 141.877 266.378V271.526C141.877 271.709 141.762 271.823 141.556 271.823H131.581V272.967ZM161.091 262.626H163.996C164.225 262.626 164.317 262.741 164.317 262.946V264.937C164.317 265.12 164.225 265.234 163.996 265.234H161.091V274.958C161.091 275.141 160.999 275.232 160.77 275.232H158.437C158.254 275.232 158.162 275.141 158.162 274.958V255.419C158.162 255.236 158.254 255.122 158.437 255.122H160.77C160.999 255.122 161.091 255.236 161.091 255.419V262.626ZM153.197 259.835H145.556C145.35 259.835 145.259 259.721 145.259 259.538V257.593C145.259 257.41 145.35 257.295 145.556 257.295H155.806C156.012 257.295 156.103 257.41 156.103 257.593V259.789C156.103 262.489 155.829 264.502 155.462 266.493C155.417 266.721 155.279 266.767 155.074 266.744L152.9 266.516C152.694 266.493 152.648 266.31 152.671 266.127C152.946 264.365 153.197 262.237 153.197 260.27V259.835ZM156.95 268.781L157.201 270.657C157.224 270.84 157.11 270.908 156.904 270.954C154.502 271.434 151.665 271.64 148.118 271.64H144.458C144.252 271.64 144.16 271.526 144.16 271.366V269.444C144.16 269.261 144.252 269.17 144.458 269.17H147.798V263.793C147.798 263.633 147.89 263.518 148.073 263.518H150.383C150.612 263.518 150.704 263.633 150.704 263.793V269.101C152.969 269.009 155.028 268.803 156.606 268.529C156.812 268.483 156.927 268.62 156.95 268.781ZM182.197 267.408C179.68 267.888 176.889 268.094 173.343 268.094H169.682C169.477 268.094 169.385 267.98 169.385 267.797V266.035C169.385 265.875 169.477 265.761 169.682 265.761H172.771C173.389 265.761 173.984 265.761 174.578 265.738V264.456C172.245 264.09 170.987 262.832 170.987 261.185C170.987 260.384 171.307 259.789 171.673 259.4H170.117C169.911 259.4 169.843 259.309 169.843 259.126V257.273C169.843 257.112 169.911 256.998 170.117 256.998H174.601V255.236C174.601 255.053 174.693 254.939 174.876 254.939H177.187C177.393 254.939 177.484 255.053 177.484 255.236V256.998H181.808C181.991 256.998 182.083 257.112 182.083 257.273V259.126C182.083 259.309 181.991 259.4 181.808 259.4H180.413C180.779 259.789 181.099 260.384 181.099 261.185C181.099 262.832 179.772 264.09 177.507 264.456V265.623C179.108 265.509 180.573 265.349 181.945 265.12C182.151 265.074 182.266 265.211 182.289 265.372L182.495 267.088C182.517 267.271 182.403 267.362 182.197 267.408ZM186.315 260.613H189.221C189.45 260.613 189.541 260.727 189.541 260.933V262.855C189.541 263.038 189.45 263.152 189.221 263.152H186.315V267.728C186.315 267.911 186.224 268.048 185.995 268.048H183.661C183.478 268.048 183.387 267.911 183.387 267.728V255.419C183.387 255.236 183.478 255.122 183.661 255.122H185.995C186.224 255.122 186.315 255.236 186.315 255.419V260.613ZM173.732 260.956C173.732 261.734 174.395 262.352 176.043 262.352C177.576 262.352 178.376 261.734 178.376 260.956C178.376 260.201 177.553 259.583 176.043 259.583C174.441 259.583 173.732 260.201 173.732 260.956ZM172.634 269.055H186.018C186.224 269.055 186.315 269.17 186.315 269.33V275.255C186.315 275.438 186.224 275.553 186.018 275.553H183.684C183.478 275.553 183.387 275.438 183.387 275.255V271.366H172.634C172.428 271.366 172.336 271.251 172.336 271.068V269.33C172.336 269.17 172.428 269.055 172.634 269.055ZM207.176 269.787H204.866C204.66 269.787 204.568 269.696 204.568 269.513V255.419C204.568 255.236 204.66 255.122 204.866 255.122H207.176C207.405 255.122 207.497 255.236 207.497 255.419V269.513C207.497 269.696 207.405 269.787 207.176 269.787ZM196.309 266.241C193.037 266.241 190.727 264.113 190.727 261.093C190.727 258.096 193.037 255.968 196.309 255.968C199.581 255.968 201.891 258.096 201.891 261.093C201.891 264.113 199.581 266.241 196.309 266.241ZM196.309 263.77C197.91 263.77 199.032 262.695 199.032 261.093C199.032 259.492 197.91 258.417 196.309 258.417C194.707 258.417 193.586 259.492 193.586 261.093C193.586 262.695 194.707 263.77 196.309 263.77ZM207.634 275.026H194.479C194.273 275.026 194.181 274.912 194.181 274.729V268.209C194.181 268.048 194.273 267.934 194.479 267.934H196.812C197.018 267.934 197.11 268.048 197.11 268.209V272.441H207.634C207.84 272.441 207.931 272.533 207.931 272.739V274.729C207.931 274.912 207.84 275.026 207.634 275.026ZM226.71 262.878H229.616C229.845 262.878 229.936 262.992 229.936 263.175V265.189C229.936 265.349 229.845 265.463 229.616 265.463H226.71V274.958C226.71 275.141 226.619 275.232 226.39 275.232H224.057C223.874 275.232 223.782 275.141 223.782 274.958V255.419C223.782 255.236 223.874 255.122 224.057 255.122H226.39C226.619 255.122 226.71 255.236 226.71 255.419V262.878ZM217.765 258.371H222.043C222.249 258.371 222.341 258.485 222.341 258.668V260.613C222.341 260.796 222.249 260.91 222.043 260.91H210.535C210.329 260.91 210.261 260.796 210.261 260.613V258.668C210.261 258.485 210.329 258.371 210.535 258.371H214.836V256.014C214.836 255.854 214.928 255.74 215.157 255.74H217.467C217.673 255.74 217.765 255.854 217.765 256.014V258.371ZM216.324 262.077C219.549 262.077 221.609 263.953 221.609 266.996C221.609 270.016 219.549 271.869 216.324 271.869C213.121 271.869 211.084 270.016 211.084 266.996C211.084 263.953 213.121 262.077 216.324 262.077ZM216.346 269.467C217.856 269.467 218.749 268.415 218.749 266.996C218.749 265.532 217.856 264.479 216.346 264.479C214.836 264.479 213.944 265.532 213.944 266.996C213.944 268.415 214.836 269.467 216.346 269.467ZM247.594 275.232H245.261C245.055 275.232 244.963 275.141 244.963 274.958V255.419C244.963 255.236 245.055 255.122 245.261 255.122H247.594C247.823 255.122 247.915 255.236 247.915 255.419V274.958C247.915 275.141 247.823 275.232 247.594 275.232ZM232.975 270.908C232.769 271 232.655 270.977 232.54 270.817L231.465 268.918C231.351 268.735 231.396 268.598 231.579 268.506C236.521 266.104 238.557 263.77 238.557 260.315V259.858H232.151C231.968 259.858 231.877 259.766 231.877 259.583V257.57C231.877 257.387 231.968 257.273 232.151 257.273H241.211C241.44 257.273 241.509 257.387 241.509 257.57V260.315C241.509 264.731 238.763 268.048 232.975 270.908Z" fill="#EFECF8"/>
<rect x="0.404942" y="362.938" width="44.4337" height="44.4337" rx="22.2169" fill="#13B482"/>
<rect x="0.404942" y="362.938" width="44.4337" height="44.4337" rx="22.2169" stroke="#EFECF8" stroke-width="0.809884"/>
<path d="M26.969 394.155H24.3207C24.1263 394.155 24.0048 394.034 24.0048 393.839V390.705H15.5496C15.3553 390.705 15.2338 390.583 15.2338 390.389V389.587C15.2338 389.442 15.2581 389.32 15.3553 389.199L24.758 376.516C24.8552 376.394 24.9767 376.321 25.1468 376.321H26.969C27.1634 376.321 27.2849 376.443 27.2849 376.637V387.619H29.593C29.7874 387.619 29.9089 387.741 29.9089 387.935V390.389C29.9089 390.583 29.7874 390.705 29.593 390.705H27.2849V393.839C27.2849 394.034 27.1634 394.155 26.969 394.155ZM24.0048 382.007L19.9473 387.619H24.0048V382.007Z" fill="#EFECF8"/>
<path d="M95.4707 383.036H98.3763C98.6051 383.036 98.6966 383.15 98.6966 383.356V385.347C98.6966 385.53 98.6051 385.644 98.3763 385.644H95.4707V395.802C95.4707 395.985 95.3792 396.077 95.1504 396.077H92.8168C92.6338 396.077 92.5423 395.985 92.5423 395.802V376.264C92.5423 376.081 92.6338 375.966 92.8168 375.966H95.1504C95.3792 375.966 95.4707 376.081 95.4707 376.264V383.036ZM90.7806 388.161L91.1009 390.128C91.1238 390.311 91.0551 390.38 90.8492 390.426C88.8359 390.86 86.4108 391.135 83.6653 391.135H80.2793C80.0734 391.135 79.9818 391.021 79.9818 390.838V378.071C79.9818 377.911 80.0734 377.797 80.2564 377.797H82.6129C82.8188 377.797 82.8874 377.911 82.8874 378.071V388.527H84.1C85.8617 388.527 88.4012 388.344 90.4145 387.886C90.5976 387.841 90.7577 387.955 90.7806 388.161ZM116.332 396.077H114.044C113.838 396.077 113.747 395.985 113.747 395.802V376.264C113.747 376.081 113.838 375.966 114.044 375.966H116.332C116.561 375.966 116.652 376.081 116.652 376.264V395.802C116.652 395.985 116.561 396.077 116.332 396.077ZM105.922 387.612C102.49 387.612 100.454 385.438 100.454 382.601C100.454 379.764 102.49 377.591 105.922 377.591C109.377 377.591 111.39 379.764 111.39 382.601C111.39 385.438 109.377 387.612 105.922 387.612ZM105.922 385.118C107.409 385.118 108.507 384.226 108.507 382.601C108.507 380.977 107.409 380.085 105.922 380.085C104.458 380.085 103.36 380.977 103.36 382.601C103.36 384.226 104.458 385.118 105.922 385.118ZM103.771 392.37H99.699C99.4931 392.37 99.4016 392.256 99.4016 392.096V390.174C99.4016 390.014 99.4931 389.9 99.699 389.9H103.199C106.814 389.9 109.766 389.717 112.374 389.259C112.58 389.213 112.694 389.351 112.717 389.511L112.969 391.387C112.969 391.57 112.877 391.661 112.671 391.684C110.155 392.21 107.318 392.37 103.771 392.37ZM135.448 385.438H143.341C143.547 385.438 143.638 385.576 143.638 385.736V387.589C143.638 387.772 143.547 387.863 143.341 387.863H124.58C124.397 387.863 124.306 387.772 124.306 387.589V385.736C124.306 385.576 124.397 385.438 124.58 385.438H132.497V383.654H127.44C127.234 383.654 127.166 383.539 127.166 383.379V376.859C127.166 376.676 127.234 376.561 127.463 376.561H140.39C140.573 376.561 140.664 376.676 140.664 376.859V378.666C140.664 378.849 140.573 378.964 140.39 378.964H130.048V381.251H140.596C140.801 381.251 140.893 381.366 140.893 381.549V383.379C140.893 383.539 140.801 383.654 140.596 383.654H135.448V385.438ZM133.961 388.641C138.514 388.641 140.756 390.128 140.756 392.599C140.756 395.024 138.514 396.58 133.961 396.58C129.408 396.58 127.189 395.047 127.189 392.599C127.189 390.128 129.408 388.641 133.961 388.641ZM133.961 394.178C136.821 394.178 137.85 393.56 137.85 392.599C137.85 391.638 136.821 391.021 133.961 391.021C131.101 391.021 130.071 391.638 130.071 392.599C130.071 393.56 131.101 394.178 133.961 394.178ZM161.091 383.036H163.996C164.225 383.036 164.317 383.15 164.317 383.356V385.347C164.317 385.53 164.225 385.644 163.996 385.644H161.091V395.802C161.091 395.985 160.999 396.077 160.77 396.077H158.437C158.254 396.077 158.162 395.985 158.162 395.802V376.264C158.162 376.081 158.254 375.966 158.437 375.966H160.77C160.999 375.966 161.091 376.081 161.091 376.264V383.036ZM150.544 377.682C153.998 377.682 156.355 380.085 156.355 384.615C156.355 389.167 153.998 391.57 150.544 391.57C147.066 391.57 144.709 389.167 144.709 384.615C144.709 380.085 147.066 377.682 150.544 377.682ZM150.544 388.962C152.351 388.962 153.449 387.52 153.449 384.615C153.449 381.732 152.351 380.268 150.544 380.268C148.736 380.268 147.615 381.732 147.615 384.615C147.615 387.52 148.736 388.962 150.544 388.962ZM181.952 396.077H179.641C179.435 396.077 179.344 395.985 179.344 395.802V376.264C179.344 376.081 179.435 375.966 179.641 375.966H181.952C182.18 375.966 182.272 376.081 182.272 376.264V395.802C182.272 395.985 182.18 396.077 181.952 396.077ZM170.146 391.455H166.188C165.982 391.455 165.914 391.341 165.914 391.158V383.722C165.914 383.539 165.982 383.425 166.188 383.425H173.212V380.199H166.143C165.959 380.199 165.868 380.108 165.868 379.902V378.071C165.868 377.911 165.959 377.797 166.143 377.797H175.82C176.003 377.797 176.095 377.911 176.095 378.071V385.415C176.095 385.598 175.98 385.713 175.797 385.713H168.796V389.03H170.581C172.343 389.03 174.882 388.847 176.896 388.39C177.079 388.367 177.216 388.435 177.262 388.664L177.559 390.472C177.582 390.632 177.536 390.7 177.33 390.746C175.294 391.181 172.892 391.455 170.146 391.455ZM204.866 375.966H207.176C207.405 375.966 207.497 376.081 207.497 376.264V395.802C207.497 395.985 207.405 396.077 207.176 396.077H204.866C204.66 396.077 204.568 395.985 204.568 395.802V376.264C204.568 376.081 204.66 375.966 204.866 375.966ZM202.715 389.328C202.898 389.465 202.875 389.648 202.738 389.785L201.365 391.387C201.228 391.524 201.068 391.524 200.885 391.387C198.963 389.831 197.43 388.115 196.652 386.559C195.806 388.252 194.204 390.174 192.214 391.707C192.031 391.844 191.848 391.844 191.733 391.707L190.338 390.105C190.2 389.991 190.2 389.762 190.361 389.648C193.106 387.452 195.119 384.706 195.119 381V380.657H191.207C191.001 380.657 190.91 380.542 190.91 380.359V378.346C190.91 378.163 191.001 378.048 191.207 378.048H201.685C201.914 378.048 202.006 378.163 202.006 378.346V380.359C202.006 380.542 201.914 380.657 201.685 380.657H198.025V381C198.025 384.592 200.244 387.337 202.715 389.328ZM220.442 387.795H224.766V376.264C224.766 376.081 224.857 375.966 225.063 375.966H227.374C227.603 375.966 227.694 376.081 227.694 376.264V391.341C227.694 391.524 227.603 391.638 227.374 391.638H225.063C224.857 391.638 224.766 391.524 224.766 391.341V390.083H220.442C220.213 390.083 220.144 389.991 220.144 389.785V388.092C220.144 387.886 220.213 387.795 220.442 387.795ZM216.987 383.768C213.418 383.768 211.588 382.281 211.588 380.153C211.588 378.003 213.418 376.516 216.987 376.516C220.579 376.516 222.386 378.003 222.386 380.153C222.386 382.281 220.579 383.768 216.987 383.768ZM216.987 378.758C215.294 378.758 214.447 379.33 214.447 380.153C214.447 380.954 215.294 381.526 216.987 381.526C218.68 381.526 219.549 380.954 219.549 380.153C219.549 379.33 218.68 378.758 216.987 378.758ZM215.294 389.419V387.017H214.791H210.581C210.375 387.017 210.284 386.902 210.284 386.742V384.866C210.284 384.683 210.375 384.569 210.581 384.569H214.219C217.834 384.569 220.693 384.409 223.279 383.951C223.485 383.905 223.599 384.02 223.622 384.203L223.874 385.987C223.896 386.17 223.782 386.239 223.576 386.285C221.837 386.628 220.099 386.834 218.177 386.948V389.419C218.177 389.579 218.085 389.694 217.902 389.694H215.614C215.408 389.694 215.294 389.579 215.294 389.419ZM216.758 393.4H227.923C228.152 393.4 228.243 393.514 228.243 393.72V395.711C228.243 395.894 228.152 396.008 227.923 396.008H214.127C213.921 396.008 213.83 395.894 213.83 395.711V390.838C213.83 390.655 213.921 390.563 214.127 390.563H216.346C216.552 390.563 216.758 390.655 216.758 390.838V393.4ZM251.066 375.966H253.377C253.582 375.966 253.651 376.081 253.651 376.264V395.802C253.651 395.985 253.582 396.077 253.377 396.077H251.066C250.883 396.077 250.791 395.985 250.791 395.802V385.53H248.824V395.185C248.824 395.368 248.732 395.482 248.549 395.482H246.284C246.078 395.482 245.987 395.368 245.987 395.185V376.699C245.987 376.516 246.078 376.401 246.284 376.401H248.549C248.732 376.401 248.824 376.516 248.824 376.699V382.922H250.791V376.264C250.791 376.081 250.883 375.966 251.066 375.966ZM244.843 388.527L245.117 390.494C245.14 390.655 245.094 390.723 244.866 390.769C243.47 391.135 240.999 391.341 239.192 391.341H236.446C236.217 391.341 236.126 391.227 236.126 391.066V378.186C236.126 378.003 236.217 377.911 236.423 377.911H238.711C238.894 377.911 238.986 378.003 238.986 378.186V388.756H239.512C240.93 388.756 243.035 388.573 244.477 388.275C244.683 388.229 244.82 388.321 244.843 388.527ZM270.485 375.966H272.796C273.025 375.966 273.117 376.081 273.117 376.264V386.925C273.117 387.108 273.025 387.223 272.796 387.223H270.485C270.28 387.223 270.188 387.108 270.188 386.925V385.049H267.946C267.74 385.049 267.649 384.935 267.649 384.729L267.694 382.853C267.694 382.647 267.786 382.533 267.992 382.533H270.188V380.565H267.992C267.786 380.565 267.694 380.451 267.694 380.245L267.649 378.369C267.649 378.163 267.74 378.048 267.946 378.048H270.188V376.264C270.188 376.081 270.28 375.966 270.485 375.966ZM267.374 381.801C267.374 384.798 265.109 386.88 261.86 386.88C258.611 386.88 256.346 384.775 256.346 381.801C256.346 378.803 258.611 376.699 261.86 376.699C265.109 376.699 267.374 378.803 267.374 381.801ZM259.206 381.801C259.206 383.356 260.373 384.432 261.86 384.432C263.37 384.432 264.514 383.356 264.514 381.801C264.514 380.222 263.37 379.147 261.86 379.147C260.373 379.147 259.206 380.222 259.206 381.801ZM259.435 388.229H272.819C273.025 388.229 273.117 388.344 273.117 388.504V396.008C273.117 396.168 273.025 396.283 272.819 396.283H270.508C270.28 396.283 270.188 396.168 270.188 396.008V390.769H259.435C259.229 390.769 259.138 390.655 259.138 390.494V388.504C259.138 388.344 259.229 388.229 259.435 388.229ZM291.889 391.57H299.805C300.011 391.57 300.103 391.684 300.103 391.867V393.88C300.103 394.041 300.011 394.155 299.805 394.155H281.045C280.862 394.155 280.77 394.041 280.77 393.88V391.867C280.77 391.684 280.862 391.57 281.045 391.57H288.984V387.909H283.813C283.607 387.909 283.516 387.818 283.516 387.635V377.659C283.516 377.476 283.607 377.385 283.813 377.385H286.147C286.353 377.385 286.421 377.476 286.421 377.659V380.291H294.429V377.659C294.429 377.476 294.52 377.385 294.703 377.385H297.06C297.266 377.385 297.357 377.476 297.357 377.659V387.635C297.357 387.818 297.266 387.909 297.06 387.909H291.889V391.57ZM294.429 382.876H286.421V385.347H294.429V382.876ZM318.241 396.077H315.908C315.702 396.077 315.61 395.985 315.61 395.802V376.264C315.61 376.081 315.702 375.966 315.908 375.966H318.241C318.47 375.966 318.562 376.081 318.562 376.264V395.802C318.562 395.985 318.47 396.077 318.241 396.077ZM303.622 391.753C303.416 391.844 303.302 391.821 303.187 391.661L302.112 389.762C301.998 389.579 302.043 389.442 302.226 389.351C307.168 386.948 309.204 384.615 309.204 381.16V380.702H302.798C302.615 380.702 302.524 380.611 302.524 380.428V378.414C302.524 378.231 302.615 378.117 302.798 378.117H311.858C312.087 378.117 312.156 378.231 312.156 378.414V381.16C312.156 385.576 309.41 388.893 303.622 391.753Z" fill="#EFECF8"/>
</svg>
