<svg width="18" height="20" viewBox="0 0 18 20" fill="none" xmlns="http://www.w3.org/2000/svg">
<path fill-rule="evenodd" clip-rule="evenodd" d="M2.36952 0.118178C2.57348 0.101514 2.81553 0.101538 3.06985 0.101565L10.6996 0.101562V6.90156H17.3996L17.3996 17.4313C17.3996 17.6856 17.3996 17.9277 17.383 18.1316C17.3648 18.3541 17.3224 18.6092 17.1925 18.8641C17.0103 19.2216 16.7197 19.5123 16.3622 19.6945C16.1072 19.8244 15.8521 19.8668 15.6297 19.8849C15.4257 19.9016 15.1837 19.9016 14.9294 19.9016H3.06979C2.81549 19.9016 2.57347 19.9016 2.36952 19.8849C2.14711 19.8668 1.89201 19.8244 1.63703 19.6945C1.27952 19.5123 0.988858 19.2216 0.806699 18.8641C0.676782 18.6092 0.634396 18.3541 0.616225 18.1316C0.599561 17.9277 0.599585 17.6856 0.599612 17.4313V2.57181C0.599585 2.31748 0.599561 2.07544 0.616225 1.87148C0.634396 1.64907 0.676782 1.39396 0.806699 1.13898C0.988858 0.781475 1.27952 0.490812 1.63703 0.308652C1.89201 0.178735 2.14711 0.136349 2.36952 0.118178Z" fill="#5E2BE8"/>
<path d="M16.5643 4.82699L12.7742 0.847379V4.82699H16.5643Z" fill="#5E2BE8"/>
</svg>
