<svg width="20" height="20" viewBox="0 0 20 20" fill="none" xmlns="http://www.w3.org/2000/svg">
<path fill-rule="evenodd" clip-rule="evenodd" d="M2.56985 0.101564C2.31553 0.101539 2.07349 0.101515 1.86953 0.11818C1.64712 0.136351 1.39201 0.178737 1.13703 0.308654C0.779523 0.490813 0.48886 0.781476 0.306701 1.13898C0.176784 1.39396 0.134398 1.64907 0.116226 1.87148C0.0995621 2.07544 0.0995861 2.31749 0.0996113 2.57181V13.4313C0.0995861 13.6856 0.0995621 13.9277 0.116226 14.1316C0.134398 14.3541 0.176784 14.6092 0.306701 14.8641C0.48886 15.2217 0.779523 15.5123 1.13703 15.6945C1.39201 15.8244 1.64712 15.8668 1.86953 15.8849C2.07349 15.9016 2.31553 15.9016 2.56985 15.9016H13.4294C13.6837 15.9016 13.9257 15.9016 14.1297 15.8849C14.3521 15.8668 14.6072 15.8244 14.8622 15.6945C15.2197 15.5123 15.5104 15.2217 15.6925 14.8641C15.8224 14.6092 15.8648 14.3541 15.883 14.1316C15.8997 13.9277 15.8996 13.6856 15.8996 13.4313V2.5718C15.8996 2.31748 15.8997 2.07544 15.883 1.87148C15.8648 1.64907 15.8224 1.39396 15.6925 1.13898C15.5104 0.781476 15.2197 0.490813 14.8622 0.308654C14.6072 0.178737 14.3521 0.136351 14.1297 0.11818C13.9257 0.101515 13.6837 0.101539 13.4294 0.101564H2.56985ZM1.8996 2.00137C1.8996 1.94614 1.94437 1.90137 1.9996 1.90137H13.9996C14.0548 1.90137 14.0996 1.94614 14.0996 2.00137V14.0014C14.0996 14.0566 14.0548 14.1014 13.9996 14.1014H1.9996C1.94437 14.1014 1.8996 14.0566 1.8996 14.0014V2.00137ZM19.883 18.132C19.8997 17.9281 19.8997 17.686 19.8996 17.4317L19.8996 7.00195L18.0997 7.00234V18.0023C18.0997 18.0576 18.0549 18.1023 17.9997 18.1023H6.99965L6.99963 19.9019L17.4294 19.902C17.6837 19.902 17.9258 19.902 18.1297 19.8853C18.3521 19.8672 18.6072 19.8248 18.8622 19.6949C19.2197 19.5127 19.5104 19.222 19.6925 18.8645C19.8225 18.6096 19.8648 18.3544 19.883 18.132Z" fill="#5E2BE8"/>
</svg>
