<svg width="20" height="20" viewBox="0 0 20 20" fill="none" xmlns="http://www.w3.org/2000/svg">
<path fill-rule="evenodd" clip-rule="evenodd" d="M12.5844 10.8765C12.9854 10.8765 13.3287 10.7337 13.6143 10.4481C13.8999 10.1625 14.0427 9.81917 14.0427 9.41813C14.0427 9.01709 13.8999 8.67377 13.6143 8.38818C13.3287 8.10259 12.9854 7.9598 12.5844 7.9598C12.1833 7.9598 11.84 8.10259 11.5544 8.38818C11.2688 8.67377 11.126 9.01709 11.126 9.41813C11.126 9.81917 11.2688 10.1625 11.5544 10.4481C11.84 10.7337 12.1833 10.8765 12.5844 10.8765ZM15.501 13.7931V13.3739C15.501 13.0822 15.422 12.8148 15.264 12.5718C15.1061 12.3287 14.8873 12.1464 14.6078 12.0249C14.2918 11.8912 13.9667 11.7879 13.6325 11.715C13.2983 11.6421 12.9489 11.6056 12.5844 11.6056C12.2198 11.6056 11.8704 11.6421 11.5362 11.715C11.202 11.7879 10.8769 11.8912 10.5609 12.0249C10.2814 12.1464 10.0627 12.3287 9.90467 12.5718C9.74669 12.8148 9.75103 13.1655 9.66769 13.3739V13.7931H15.501Z" fill="#727586"/>
<path fill-rule="evenodd" clip-rule="evenodd" d="M7.22125 4.91809C7.32709 4.91809 7.38235 4.91827 7.42322 4.9201C7.43535 4.92064 7.44299 4.92123 7.44718 4.92161C7.45209 4.92309 7.45686 4.92501 7.46142 4.92736C7.4647 4.93 7.4706 4.93488 7.47971 4.94291C7.51038 4.96998 7.55026 5.00824 7.6264 5.08175L8.57789 6.00029L8.60719 6.02866C8.71925 6.13733 8.85186 6.26592 9.0123 6.36154C9.15181 6.44468 9.30329 6.50587 9.4614 6.54295C9.64324 6.58559 9.82797 6.58517 9.98407 6.58482L16.751 6.58476L16.751 15.0848H3.25098L3.25101 4.91809H7.22125ZM7.7847 3.45991C7.60286 3.41727 7.41813 3.41768 7.26204 3.41803L3.14926 3.41809C3.04906 3.41806 2.9338 3.41802 2.83294 3.42626C2.71708 3.43573 2.55594 3.4597 2.38802 3.54525C2.1685 3.65711 1.99002 3.83558 1.87817 4.0551C1.79261 4.22302 1.76864 4.38416 1.75918 4.50002C1.75094 4.60088 1.75097 4.71614 1.75101 4.81634L1.75098 15.1865C1.75095 15.2867 1.75091 15.402 1.75915 15.5028C1.76862 15.6187 1.79258 15.7798 1.87814 15.9477C1.98999 16.1673 2.16847 16.3457 2.38799 16.4576C2.55591 16.5432 2.71705 16.5671 2.83291 16.5766C2.93378 16.5848 3.04903 16.5848 3.14923 16.5848H16.8528C16.953 16.5848 17.0682 16.5848 17.1691 16.5766C17.285 16.5671 17.4461 16.5432 17.614 16.4576C17.8335 16.3457 18.012 16.1673 18.1239 15.9477C18.2094 15.7798 18.2334 15.6187 18.2429 15.5028C18.252 15.3915 18.251 15.2797 18.251 15.1681L18.251 6.48305C18.251 6.38285 18.251 6.26754 18.2428 6.16668C18.2333 6.05082 18.2094 5.88968 18.1238 5.72177C18.012 5.50225 17.8335 5.32377 17.614 5.21192C17.446 5.12636 17.2849 5.1024 17.169 5.09293C17.0682 5.08469 16.9529 5.08473 16.8527 5.08476L10.0248 5.08476C9.91901 5.08476 9.86375 5.08459 9.82288 5.08276C9.81075 5.08222 9.80312 5.08163 9.79892 5.08124C9.79401 5.07977 9.78925 5.07784 9.78469 5.07549C9.7814 5.07286 9.7755 5.06798 9.7664 5.05994C9.73572 5.03287 9.69585 4.99462 9.6197 4.92111L8.63892 3.9742C8.52686 3.86553 8.39424 3.73693 8.2338 3.64132C8.09429 3.55817 7.94282 3.49699 7.7847 3.45991Z" fill="#727586"/>
</svg>
