<svg width="34" height="34" viewBox="0 0 34 34" fill="none" xmlns="http://www.w3.org/2000/svg">
<g clip-path="url(#clip0_658_82696)">
<path fill-rule="evenodd" clip-rule="evenodd" d="M9.91476 6.33472C10.1396 6.31635 10.4064 6.31638 10.6867 6.31641H20.6004L26.4817 12.4918V25.4182C26.4817 25.6985 26.4818 25.9653 26.4634 26.1901C26.4434 26.4353 26.3966 26.7165 26.2534 26.9975C26.0527 27.3916 25.7323 27.712 25.3382 27.9127C25.0572 28.0559 24.776 28.1027 24.5308 28.1227C24.306 28.1411 24.0392 28.141 23.7589 28.141H10.6866C10.4063 28.141 10.1396 28.1411 9.91476 28.1227C9.66961 28.1027 9.38842 28.0559 9.10737 27.9127C8.7133 27.712 8.39292 27.3916 8.19213 26.9975C8.04893 26.7165 8.00221 26.4353 7.98218 26.1901C7.96382 25.9653 7.96384 25.6985 7.96387 25.4182V9.03924C7.96384 8.75891 7.96382 8.49212 7.98218 8.2673C8.00221 8.02215 8.04893 7.74095 8.19213 7.45991C8.39292 7.06584 8.7133 6.74546 9.10737 6.54467C9.38841 6.40147 9.66961 6.35475 9.91476 6.33472ZM9.94791 8.41047C9.94791 8.34959 9.99726 8.30025 10.0581 8.30025H18.4353V13.8119H24.4976V26.0465C24.4976 26.1074 24.4483 26.1567 24.3874 26.1567H10.0581C9.99726 26.1567 9.94791 26.1074 9.94791 26.0465V8.41047ZM20.4193 11.8279V9.00293L23.1097 11.8279H20.4193Z" fill="#5E2BE8"/>
<path d="M20.2373 16.1797L16.0051 20.4118L13.4658 17.8725" stroke="#5E2BE8" stroke-width="1.7672" stroke-linecap="round" stroke-linejoin="round"/>
</g>
<defs>
<clipPath id="clip0_658_82696">
<rect width="34" height="34" fill="white"/>
</clipPath>
</defs>
</svg>
