<svg width="34" height="34" viewBox="0 0 34 34" fill="none" xmlns="http://www.w3.org/2000/svg">
<g clip-path="url(#clip0_658_82719)">
<path d="M20.002 16.7636C20.002 16.3419 20.2527 16 20.5619 16H30.8015C31.1108 16 31.3615 16.3419 31.3615 16.7636C31.3615 17.1854 31.1108 17.5273 30.8015 17.5273H20.5619C20.2527 17.5273 20.002 17.1854 20.002 16.7636Z" fill="white"/>
<path d="M20.002 27.2364C20.002 26.8146 20.2527 26.4727 20.5619 26.4727H26.9617C27.2709 26.4727 27.5216 26.8146 27.5216 27.2364C27.5216 27.6581 27.2709 28 26.9617 28H20.5619C20.2527 28 20.002 27.6581 20.002 27.2364Z" fill="white"/>
<path d="M20.5619 21.2364C20.2527 21.2364 20.002 21.5783 20.002 22C20.002 22.4217 20.2527 22.7636 20.5619 22.7636H30.8015C31.1108 22.7636 31.3615 22.4217 31.3615 22C31.3615 21.5783 31.1108 21.2364 30.8015 21.2364H20.5619Z" fill="white"/>
<path fill-rule="evenodd" clip-rule="evenodd" d="M5.70395 5.85048C5.88242 5.8359 6.09421 5.83592 6.31674 5.83594H14.1866L18.8553 10.7381V20.9995C18.8553 21.2221 18.8554 21.4338 18.8408 21.6123C18.8249 21.8069 18.7878 22.0301 18.6741 22.2533C18.5147 22.5661 18.2604 22.8204 17.9476 22.9798C17.7245 23.0935 17.5013 23.1306 17.3066 23.1465C17.1282 23.161 16.9164 23.161 16.6939 23.161H6.31669C6.09418 23.161 5.88241 23.161 5.70395 23.1465C5.50935 23.1306 5.28613 23.0935 5.06302 22.9798C4.7502 22.8204 4.49587 22.5661 4.33648 22.2533C4.2228 22.0301 4.18571 21.8069 4.16981 21.6123C4.15523 21.4338 4.15525 21.2221 4.15528 20.9995V7.99741C4.15525 7.77488 4.15523 7.56309 4.16981 7.38462C4.18571 7.19001 4.2228 6.96679 4.33648 6.74368C4.49587 6.43086 4.7502 6.17653 5.06302 6.01714C5.28613 5.90346 5.50935 5.86638 5.70395 5.85048ZM5.73027 7.49827C5.73027 7.44995 5.76944 7.41077 5.81777 7.41077H12.4678V11.7861H17.2803V21.4983C17.2803 21.5466 17.2411 21.5858 17.1928 21.5858H5.81777C5.76944 21.5858 5.73027 21.5466 5.73027 21.4983V7.49827ZM14.0428 10.2111V7.96859L16.1785 10.2111H14.0428Z" fill="white"/>
</g>
<defs>
<clipPath id="clip0_658_82719">
<rect width="34" height="34" fill="white"/>
</clipPath>
</defs>
</svg>
