<svg width="34" height="35" viewBox="0 0 34 35" fill="none" xmlns="http://www.w3.org/2000/svg">
<g clip-path="url(#clip0_1979_5656)">
<path fill-rule="evenodd" clip-rule="evenodd" d="M9.91476 7.26441C10.1396 7.24604 10.4064 7.24607 10.6867 7.2461H20.6004L26.4817 13.4215V26.3479C26.4817 26.6282 26.4818 26.895 26.4634 27.1198C26.4434 27.3649 26.3966 27.6461 26.2534 27.9272C26.0527 28.3213 25.7323 28.6416 25.3382 28.8424C25.0572 28.9856 24.776 29.0323 24.5308 29.0524C24.306 29.0707 24.0392 29.0707 23.7589 29.0707H10.6866C10.4063 29.0707 10.1396 29.0707 9.91476 29.0524C9.66961 29.0323 9.38842 28.9856 9.10737 28.8424C8.7133 28.6416 8.39292 28.3213 8.19213 27.9272C8.04893 27.6461 8.00221 27.3649 7.98218 27.1198C7.96382 26.895 7.96384 26.6282 7.96387 26.3479V9.96892C7.96384 9.6886 7.96382 9.4218 7.98218 9.19699C8.00221 8.95184 8.04893 8.67064 8.19213 8.38959C8.39292 7.99553 8.7133 7.67514 9.10737 7.47436C9.38841 7.33116 9.66961 7.28444 9.91476 7.26441ZM9.94791 9.34016C9.94791 9.27928 9.99726 9.22993 10.0581 9.22993H18.4353V14.7416H24.4976V26.9762C24.4976 27.0371 24.4483 27.0864 24.3874 27.0864H10.0581C9.99726 27.0864 9.94791 27.0371 9.94791 26.9762V9.34016ZM20.4193 12.7576V9.93262L23.1097 12.7576H20.4193Z" fill="white"/>
<path d="M20.2373 17.1094L16.0051 21.3415L13.4658 18.8022" stroke="white" stroke-width="1.7672" stroke-linecap="round" stroke-linejoin="round"/>
</g>
<defs>
<clipPath id="clip0_1979_5656">
<rect width="34" height="34" fill="white" transform="translate(0 0.929688)"/>
</clipPath>
</defs>
</svg>
