<svg width="35" height="35" viewBox="0 0 35 35" fill="none" xmlns="http://www.w3.org/2000/svg">
<path fill-rule="evenodd" clip-rule="evenodd" d="M6.78776 5.86276C6.97313 5.84761 7.19311 5.84763 7.42425 5.84766H15.5984L20.4477 10.9394V21.5976C20.4477 21.8287 20.4477 22.0487 20.4326 22.2341C20.416 22.4362 20.3775 22.668 20.2595 22.8998C20.0939 23.2247 19.8297 23.4889 19.5048 23.6544C19.2731 23.7725 19.0412 23.811 18.8391 23.8275C18.6537 23.8427 18.4337 23.8426 18.2026 23.8426H7.42419C7.19308 23.8426 6.97312 23.8427 6.78776 23.8275C6.58563 23.811 6.35378 23.7725 6.12205 23.6544C5.79713 23.4889 5.53296 23.2247 5.36741 22.8998C5.24934 22.668 5.21082 22.4362 5.1943 22.2341C5.17916 22.0487 5.17918 21.8287 5.1792 21.5976V8.0927C5.17918 7.86157 5.17916 7.64159 5.1943 7.45622C5.21082 7.25409 5.24934 7.02223 5.36741 6.7905C5.53296 6.46559 5.79713 6.20142 6.12205 6.03587C6.35378 5.91779 6.58563 5.87927 6.78776 5.86276ZM6.81509 7.57427C6.81509 7.52408 6.85579 7.48339 6.90598 7.48339H13.8131V12.0279H18.8117V22.1157C18.8117 22.1659 18.7711 22.2065 18.7209 22.2065H6.90598C6.85579 22.2065 6.81509 22.1659 6.81509 22.1157V7.57427ZM15.449 10.392V8.06277L17.6674 10.392H15.449Z" fill="white"/>
<path d="M18.7218 30.7405H15.2298V27.2485L26.8469 15.6314L26.8469 15.6314L26.8655 15.6128L26.7634 15.5108L26.8655 15.6128C27.0254 15.4529 27.1719 15.3065 27.3041 15.1943C27.4473 15.0727 27.6162 14.9532 27.831 14.8834C28.1387 14.7834 28.4701 14.7834 28.7778 14.8834C28.9926 14.9532 29.1616 15.0727 29.3048 15.1943C29.437 15.3065 29.5835 15.4529 29.7434 15.6128L29.7434 15.6129L30.3575 16.2269L30.3575 16.2269C30.5174 16.3868 30.6638 16.5333 30.776 16.6655L30.886 16.5721L30.776 16.6655C30.8976 16.8087 31.0171 16.9777 31.0869 17.1925C31.1868 17.5002 31.1868 17.8316 31.0869 18.1393C31.0171 18.3541 30.8976 18.523 30.776 18.6662C30.6637 18.7984 30.5174 18.9449 30.3574 19.1048L30.3574 19.1048L30.3389 19.1234L30.4409 19.2255L30.3389 19.1234L24.5092 24.9531L18.7218 30.7405ZM18.1238 29.4412H18.1836L18.2259 29.3989L29.7944 17.8303C29.8852 17.7395 29.8852 17.5922 29.7944 17.5014L28.4689 16.1759L28.3668 16.2779L28.4689 16.1759C28.378 16.085 28.2308 16.085 28.1399 16.1759L16.5714 27.7444L16.5291 27.7867V27.8465V29.2968V29.4412H16.6735H18.1238Z" fill="white" stroke="white" stroke-width="0.288736"/>
</svg>
