<svg width="34" height="34" viewBox="0 0 34 34" fill="none" xmlns="http://www.w3.org/2000/svg">
<path fill-rule="evenodd" clip-rule="evenodd" d="M16.9 7C17.2788 7 17.625 7.21443 17.7938 7.5536L20.4509 12.8935L26.4037 9.63083C26.7455 9.4435 27.1651 9.4722 27.4782 9.70433C27.7913 9.93646 27.9407 10.3296 27.8607 10.711L25.3648 22.6239C25.2679 23.0863 24.8602 23.4175 24.3877 23.4175H9.41227C8.93979 23.4175 8.53201 23.0863 8.43512 22.6239L5.93922 10.711C5.8593 10.3296 6.00868 9.93646 6.32177 9.70433C6.63487 9.4722 7.05442 9.4435 7.39621 9.63083L13.349 12.8935L16.0062 7.5536C16.1749 7.21443 16.5211 7 16.9 7ZM16.9 10.2394L14.6739 14.713C14.5529 14.9562 14.338 15.1396 14.0788 15.2209C13.8196 15.3022 13.5385 15.2743 13.3003 15.1437L8.33821 12.4241L10.2231 21.4208H23.5768L25.4617 12.4241L20.4997 15.1437C20.2615 15.2743 19.9804 15.3022 19.7211 15.2209C19.4619 15.1396 19.247 14.9562 19.126 14.713L16.9 10.2394Z" fill="white"/>
<path fill-rule="evenodd" clip-rule="evenodd" d="M8.69123 26.3016C8.69123 25.7503 9.13821 25.3033 9.68959 25.3033H24.1104C24.6617 25.3033 25.1087 25.7503 25.1087 26.3016C25.1087 26.853 24.6617 27.3 24.1104 27.3H9.68959C9.13821 27.3 8.69123 26.853 8.69123 26.3016Z" fill="white"/>
</svg>
