<svg width="34" height="34" viewBox="0 0 34 34" fill="none" xmlns="http://www.w3.org/2000/svg">
<path d="M10.6121 10.8513C10.6121 11.3336 10.2211 11.7245 9.73888 11.7245C9.25663 11.7245 8.86569 11.3336 8.86569 10.8513C8.86569 10.3691 9.25663 9.97814 9.73888 9.97814C10.2211 9.97814 10.6121 10.3691 10.6121 10.8513Z" fill="white"/>
<path d="M15.8512 10.8513C15.8512 11.3336 15.4603 11.7245 14.978 11.7245C14.4958 11.7245 14.1048 11.3336 14.1048 10.8513C14.1048 10.3691 14.4958 9.97814 14.978 9.97814C15.4603 9.97814 15.8512 10.3691 15.8512 10.8513Z" fill="white"/>
<path fill-rule="evenodd" clip-rule="evenodd" d="M9.34411 13.49C9.7194 13.272 10.2004 13.3994 10.4184 13.7747C10.8168 14.4604 11.5594 14.9204 12.4021 14.9204C13.2448 14.9204 13.9875 14.4604 14.3858 13.7747C14.6039 13.3994 15.0848 13.272 15.4601 13.49C15.8354 13.708 15.9629 14.189 15.7449 14.5643C15.0779 15.7123 13.8297 16.4922 12.4021 16.4922C10.9745 16.4922 9.72628 15.7123 9.05936 14.5643C8.84133 14.189 8.96882 13.708 9.34411 13.49Z" fill="white"/>
<path fill-rule="evenodd" clip-rule="evenodd" d="M12.3585 5.52487C8.45223 5.52487 5.28561 8.69149 5.28561 12.5977C5.28561 16.5039 8.45223 19.6706 12.3585 19.6706C16.2647 19.6706 19.4313 16.5039 19.4313 12.5977C19.4313 8.69149 16.2647 5.52487 12.3585 5.52487ZM3.71387 12.5977C3.71387 7.82344 7.58418 3.95312 12.3585 3.95312C17.1327 3.95312 21.003 7.82344 21.003 12.5977C21.003 17.372 17.1327 21.2423 12.3585 21.2423C7.58418 21.2423 3.71387 17.372 3.71387 12.5977Z" fill="white"/>
<path d="M27.2443 12.4663L27.2443 12.4663L27.2641 12.4464L27.1551 12.3375L27.2641 12.4464C27.4348 12.2757 27.5912 12.1195 27.7323 11.9996C27.8852 11.8699 28.0656 11.7423 28.2949 11.6678C28.6233 11.561 28.9771 11.561 29.3056 11.6678C29.5349 11.7423 29.7153 11.8699 29.8682 11.9996C30.0093 12.1195 30.1657 12.2757 30.3364 12.4465L30.3364 12.4465L30.9919 13.102L31.1009 12.993L30.992 13.102C31.1627 13.2727 31.3189 13.4291 31.4387 13.5702C31.5685 13.7231 31.6961 13.9035 31.7706 14.1328C31.8773 14.4612 31.8773 14.815 31.7706 15.1435C31.6961 15.3728 31.5685 15.5532 31.4387 15.7061C31.3189 15.8472 31.1627 16.0036 30.9919 16.1743L31.1009 16.2833L30.9919 16.1743L30.9721 16.1941L31.0811 16.3031L30.9721 16.1941L24.7487 22.4175L18.5704 28.5958H14.8426V24.868L27.2443 12.4663ZM17.932 27.2088H17.9959L18.041 27.1636L30.3909 14.8137L30.2819 14.7047L30.3909 14.8137C30.4878 14.7167 30.4878 14.5595 30.3909 14.4626L28.9758 13.0475C28.8788 12.9505 28.7216 12.9505 28.6247 13.0475L16.2748 25.3974L16.2296 25.4426V25.5064V27.0546V27.2088H16.3838H17.932Z" fill="white" stroke="white" stroke-width="0.308237"/>
</svg>
