<svg width="35" height="35" viewBox="0 0 35 35" fill="none" xmlns="http://www.w3.org/2000/svg">
<path fill-rule="evenodd" clip-rule="evenodd" d="M6.78776 5.17526C6.97313 5.16011 7.19311 5.16013 7.42425 5.16016H15.5984L20.4477 10.2519V20.9101C20.4477 21.1412 20.4477 21.3612 20.4326 21.5466C20.416 21.7487 20.3775 21.9805 20.2595 22.2123C20.0939 22.5372 19.8297 22.8014 19.5048 22.9669C19.2731 23.085 19.0412 23.1235 18.8391 23.14C18.6537 23.1552 18.4337 23.1551 18.2026 23.1551H7.42419C7.19308 23.1551 6.97312 23.1552 6.78776 23.14C6.58563 23.1235 6.35378 23.085 6.12205 22.9669C5.79713 22.8014 5.53296 22.5372 5.36741 22.2123C5.24934 21.9805 5.21082 21.7487 5.1943 21.5466C5.17916 21.3612 5.17918 21.1412 5.1792 20.9101V7.4052C5.17918 7.17407 5.17916 6.95409 5.1943 6.76872C5.21082 6.56659 5.24934 6.33473 5.36741 6.103C5.53296 5.77809 5.79713 5.51392 6.12205 5.34837C6.35378 5.23029 6.58563 5.19177 6.78776 5.17526ZM6.81509 6.88677C6.81509 6.83658 6.85579 6.79589 6.90598 6.79589H13.8131V11.3404H18.8117V21.4282C18.8117 21.4784 18.7711 21.519 18.7209 21.519H6.90598C6.85579 21.519 6.81509 21.4784 6.81509 21.4282V6.88677ZM15.449 9.70452V7.37527L17.6674 9.70452H15.449Z" fill="#5E2BE8"/>
<path d="M18.7218 30.053H15.2298V26.561L26.8469 14.9439L26.8469 14.9439L26.8655 14.9253L26.7634 14.8233L26.8655 14.9253C27.0254 14.7654 27.1719 14.619 27.3041 14.5068C27.4473 14.3852 27.6162 14.2657 27.831 14.1959C28.1387 14.0959 28.4701 14.0959 28.7778 14.1959C28.9926 14.2657 29.1616 14.3852 29.3048 14.5068C29.437 14.619 29.5835 14.7654 29.7434 14.9253L29.7434 14.9254L30.3575 15.5394L30.3575 15.5394C30.5174 15.6993 30.6638 15.8458 30.776 15.978L30.886 15.8846L30.776 15.978C30.8976 16.1212 31.0171 16.2902 31.0869 16.505C31.1868 16.8127 31.1868 17.1441 31.0869 17.4518C31.0171 17.6666 30.8976 17.8355 30.776 17.9787C30.6637 18.1109 30.5174 18.2574 30.3574 18.4173L30.3574 18.4173L30.3389 18.4359L30.4409 18.538L30.3389 18.4359L24.5092 24.2656L18.7218 30.053ZM18.1238 28.7537H18.1836L18.2259 28.7114L29.7944 17.1428C29.8852 17.052 29.8852 16.9047 29.7944 16.8139L28.4689 15.4884L28.3668 15.5904L28.4689 15.4884C28.378 15.3975 28.2308 15.3975 28.1399 15.4884L16.5714 27.0569L16.5291 27.0992V27.159V28.6093V28.7537H16.6735H18.1238Z" fill="#5E2BE8" stroke="#5E2BE8" stroke-width="0.288736"/>
</svg>
