<svg width="24" height="24" viewBox="0 0 24 24" fill="currentColor" xmlns="http://www.w3.org/2000/svg">
<path fill-rule="evenodd" clip-rule="evenodd" d="M5.37147 2.11818C5.57543 2.10151 5.81747 2.10154 6.07179 2.10156H15.0658L20.4015 7.70406V19.4313C20.4015 19.6856 20.4015 19.9277 20.3849 20.1316C20.3667 20.3541 20.3243 20.6092 20.1944 20.8641C20.0123 21.2216 19.7216 21.5123 19.3641 21.6945C19.1091 21.8244 18.854 21.8668 18.6316 21.8849C18.4276 21.9016 18.1856 21.9016 17.9313 21.9016H6.07174C5.81744 21.9016 5.57542 21.9016 5.37147 21.8849C5.14906 21.8668 4.89395 21.8244 4.63898 21.6945C4.28147 21.5123 3.99081 21.2216 3.80865 20.8641C3.67874 20.6092 3.63635 20.3541 3.61818 20.1316C3.60152 19.9277 3.60154 19.6856 3.60156 19.4313V4.57181C3.60154 4.31748 3.60152 4.07544 3.61818 3.87148C3.63635 3.64907 3.67874 3.39396 3.80865 3.13898C3.99081 2.78148 4.28147 2.49081 4.63898 2.30865C4.89395 2.17873 5.14906 2.13635 5.37147 2.11818ZM5.40154 4.00137C5.40154 3.94614 5.44632 3.90137 5.50154 3.90137H13.1015V8.90176H18.6015V20.0014C18.6015 20.0566 18.5567 20.1014 18.5015 20.1014H5.50154C5.44632 20.1014 5.40154 20.0566 5.40154 20.0014V4.00137ZM14.9015 7.10176V4.53887L17.3423 7.10176H14.9015Z" fill="currentColor"/>
</svg>
