<svg width="24" height="25" viewBox="0 0 24 25" fill="none" xmlns="http://www.w3.org/2000/svg">
<path d="M19.9 1.30469C19.4029 1.30469 19 1.70845 19 2.20652C19 2.90808 18.8717 3.08881 18.8261 3.1345C18.7805 3.18019 18.6001 3.30875 17.9 3.30875C17.4029 3.30875 17 3.71251 17 4.21058C17 4.70864 17.4029 5.1124 17.9 5.1124C18.6001 5.1124 18.7805 5.24097 18.8261 5.28665C18.8717 5.33234 19 5.51307 19 6.21464C19 6.7127 19.4029 7.11647 19.9 7.11647C20.3971 7.11647 20.8 6.7127 20.8 6.21464C20.8 5.51307 20.9283 5.33234 20.9739 5.28665C21.0195 5.24097 21.1999 5.1124 21.9 5.1124C22.3971 5.1124 22.8 4.70864 22.8 4.21058C22.8 3.71251 22.3971 3.30875 21.9 3.30875C21.1999 3.30875 21.0195 3.18019 20.9739 3.1345C20.9283 3.08881 20.8 2.90808 20.8 2.20652C20.8 1.70845 20.3971 1.30469 19.9 1.30469Z" fill="currentColor"/>
<path d="M3.9 8.32031C3.40294 8.32031 3 8.72407 3 9.22214C3 9.9237 2.8717 10.1044 2.8261 10.1501C2.78051 10.1958 2.60014 10.3244 1.9 10.3244C1.40294 10.3244 1 10.7281 1 11.2262C1 11.7243 1.40294 12.128 1.9 12.128C2.60014 12.128 2.78051 12.2566 2.8261 12.3023C2.8717 12.348 3 12.5287 3 13.2303C3 13.7283 3.40294 14.1321 3.9 14.1321C4.39705 14.1321 4.8 13.7283 4.8 13.2303C4.8 12.5287 4.9283 12.348 4.9739 12.3023C5.01949 12.2566 5.19986 12.128 5.9 12.128C6.39705 12.128 6.8 11.7243 6.8 11.2262C6.8 10.7281 6.39705 10.3244 5.9 10.3244C5.19986 10.3244 5.01949 10.1958 4.9739 10.1501C4.9283 10.1044 4.8 9.9237 4.8 9.22214C4.8 8.72407 4.39705 8.32031 3.9 8.32031Z" fill="currentColor"/>
<path fill-rule="evenodd" clip-rule="evenodd" d="M9.52226 8.99978C9.52226 7.4072 10.8107 6.11616 12.4 6.11616C13.9894 6.11616 15.2778 7.4072 15.2778 8.99978C15.2778 10.5924 13.9894 11.8834 12.4 11.8834C10.8107 11.8834 9.52226 10.5924 9.52226 8.99978ZM12.4 4.3125C9.81657 4.3125 7.72226 6.41107 7.72226 8.99978C7.72226 11.5885 9.81657 13.6871 12.4 13.6871C14.9835 13.6871 17.0778 11.5885 17.0778 8.99978C17.0778 6.41107 14.9835 4.3125 12.4 4.3125ZM12.4001 14.8348C15.3323 14.8348 18.2055 15.6581 20.7095 17.1809C20.9028 17.2982 21.1369 17.4402 21.3331 17.6661C21.4991 17.857 21.635 18.0996 21.7114 18.3409C21.8019 18.6271 21.8011 18.918 21.8004 19.1614L21.8003 20.676C21.8003 20.9308 21.8003 21.1734 21.7836 21.3777C21.7655 21.6006 21.7231 21.8562 21.5932 22.1117C21.411 22.47 21.1203 22.7612 20.7628 22.9437C20.5079 23.0739 20.2527 23.1164 20.0303 23.1346C19.8264 23.1513 19.5843 23.1513 19.33 23.1513H5.47049C5.21617 23.1513 4.97412 23.1513 4.77016 23.1346C4.54776 23.1164 4.29265 23.0739 4.03767 22.9437C3.68016 22.7612 3.3895 22.47 3.20734 22.1117C3.07742 21.8562 3.03504 21.6006 3.01686 21.3777C3.0002 21.1734 3.00022 20.9308 3.00025 20.676L3.00013 19.1612C2.99942 18.9178 2.99857 18.6269 3.08912 18.3407C3.16548 18.0994 3.30146 17.8568 3.46738 17.6659C3.66366 17.4401 3.89773 17.298 4.09104 17.1807C6.595 15.6581 9.46807 14.8348 12.4001 14.8348ZM4.82238 18.8496C7.0104 17.4495 9.60929 16.638 12.4001 16.638C15.191 16.638 17.79 17.4496 19.9781 18.8498C19.9819 18.8522 20.0002 18.8678 20.0002 18.9072V21.247C20.0002 21.3023 19.9554 21.3472 19.9002 21.3472H4.90021C4.84499 21.3472 4.80021 21.3023 4.80021 21.247V18.907C4.80021 18.8676 4.81855 18.852 4.82238 18.8496Z" fill="currentColor"/>
</svg>
