<svg width="20" height="20" viewBox="0 0 20 20" fill="currentColor" xmlns="http://www.w3.org/2000/svg">
<path fill-rule="evenodd" clip-rule="evenodd" d="M2.5718 0.101564C2.31748 0.101539 2.07543 0.101515 1.87147 0.11818C1.64906 0.136351 1.39396 0.178737 1.13898 0.308654C0.781474 0.490813 0.490812 0.781476 0.308653 1.13898C0.178736 1.39396 0.136351 1.64907 0.118179 1.87148C0.101515 2.07544 0.101539 2.31749 0.101564 2.57181V13.4313C0.101539 13.6856 0.101515 13.9277 0.118179 14.1316C0.136351 14.3541 0.178736 14.6092 0.308653 14.8641C0.490812 15.2217 0.781474 15.5123 1.13898 15.6945C1.39396 15.8244 1.64906 15.8668 1.87147 15.8849C2.07543 15.9016 2.31748 15.9016 2.5718 15.9016H13.4313C13.6856 15.9016 13.9276 15.9016 14.1316 15.8849C14.354 15.8668 14.6091 15.8244 14.8641 15.6945C15.2216 15.5123 15.5123 15.2217 15.6944 14.8641C15.8243 14.6092 15.8667 14.3541 15.8849 14.1316C15.9016 13.9277 15.9015 13.6856 15.9015 13.4313V2.5718C15.9015 2.31748 15.9016 2.07544 15.8849 1.87148C15.8667 1.64907 15.8243 1.39396 15.6944 1.13898C15.5123 0.781476 15.2216 0.490813 14.8641 0.308654C14.6091 0.178737 14.354 0.136351 14.1316 0.11818C13.9276 0.101515 13.6856 0.101539 13.4313 0.101564H2.5718ZM1.90154 2.00137C1.90154 1.94614 1.94631 1.90137 2.00154 1.90137H14.0015C14.0567 1.90137 14.1015 1.94614 14.1015 2.00137V14.0014C14.1015 14.0566 14.0567 14.1014 14.0015 14.1014H2.00154C1.94631 14.1014 1.90154 14.0566 1.90154 14.0014V2.00137ZM19.8849 18.132C19.9016 17.9281 19.9015 17.686 19.9015 17.4317L19.9015 7.00195L18.1015 7.00234V18.0023C18.1015 18.0576 18.0568 18.1023 18.0015 18.1023H7.00158L7.00156 19.9019L17.4313 19.9019C17.6856 19.902 17.9276 19.902 18.1316 19.8853C18.354 19.8672 18.6091 19.8248 18.8641 19.6949C19.2216 19.5127 19.5123 19.222 19.6944 18.8645C19.8243 18.6096 19.8667 18.3544 19.8849 18.132Z" fill="currentColor"/>
</svg>
